<svg xmlns="http://www.w3.org/2000/svg" viewBox="0 0 1184.1 13.43"><defs><style>.cls-1{fill:#292929;}</style></defs><g id="Layer_2" data-name="Layer 2"><g id="Layer_1-2" data-name="Layer 1"><circle class="cls-1" cx="6.53" cy="6.68" r="6.53"/><circle class="cls-1" cx="32.4" cy="6.68" r="6.53"/><circle class="cls-1" cx="58.27" cy="6.68" r="6.53"/><circle class="cls-1" cx="84.13" cy="6.68" r="6.53"/><circle class="cls-1" cx="709.14" cy="6.77" r="6.53"/><circle class="cls-1" cx="760.87" cy="6.77" r="6.53"/><circle class="cls-1" cx="526.43" cy="6.68" r="6.53"/><circle class="cls-1" cx="578.17" cy="6.68" r="6.53"/><circle class="cls-1" cx="344.21" cy="6.68" r="6.53"/><circle class="cls-1" cx="292.48" cy="6.68" r="6.53"/><circle class="cls-1" cx="161.74" cy="6.68" r="6.53"/><circle class="cls-1" cx="213.47" cy="6.68" r="6.53"/><rect class="cls-1" x="389.41" y="0.14" width="39" height="13.07"/><rect class="cls-1" x="441.68" y="0.14" width="39" height="13.07"/><circle class="cls-1" cx="135.87" cy="6.68" r="6.53"/><rect class="cls-1" x="233.77" y="0.14" width="39" height="13.07"/><rect class="cls-1" x="598.47" y="0.24" width="39" height="13.07"/><rect class="cls-1" x="650.73" y="0.24" width="39" height="13.07"/><circle class="cls-1" cx="839.18" cy="6.65" r="6.53"/><circle class="cls-1" cx="865.28" cy="6.65" r="6.53"/><rect class="cls-1" x="780.52" y="0.36" width="39" height="13.07"/><circle class="cls-1" cx="917.09" cy="6.65" r="6.53"/><circle class="cls-1" cx="968.83" cy="6.89" r="6.53"/><rect class="cls-1" x="989.21" y="0.12" width="39" height="13.07"/><circle class="cls-1" cx="1073.97" cy="6.53" r="6.53"/><circle class="cls-1" cx="1099.97" cy="6.89" r="6.53"/><circle class="cls-1" cx="1125.84" cy="6.89" r="6.53"/><circle class="cls-1" cx="1177.57" cy="6.89" r="6.53"/></g></g></svg>