<svg id="Layer_1" data-name="Layer 1" xmlns="http://www.w3.org/2000/svg" viewBox="0 0 1200 800"><defs><style>.cls-1{fill:#df0000;}.cls-2{fill:#fff;}</style></defs><g id="DcPYvs.tif"><path d="M596.77,633c-5.09-.78-10.26-1.18-15.24-2.4-27.88-6.79-44.75-24.92-50.95-52.38-6.59-29.19-.24-55.64,22.52-76,26.46-23.7,67.78-20.91,91.89,5.12a11.45,11.45,0,0,1,1.39,2.56l1.35-.81V490.2h40.7v17.7H670.35V610h18.1v18.11H647.92V608.76a30,30,0,0,0-3,2.54c-10.86,12.35-24.72,18.8-40.83,20.88a32,32,0,0,0-3.35.8Zm2.52-19.83c14.23.28,26.06-5.12,35.12-15.9,12.4-14.76,15.51-32.18,12.24-50.67-3.13-17.65-11.6-32.35-29.32-38.55-19.47-6.81-37.94-3.61-52.07,12.19-14.83,16.58-17.38,36.59-11.68,57.59C559.53,599.75,576.73,612.72,599.29,613.15Z"/><path d="M1061.79,611c-.61,1.88-1.16,3.78-1.84,5.64a20.45,20.45,0,0,1-22.61,13.24c-9.93-1.56-16.21-8.64-16.65-18.78-.5-11.38,5.19-19.68,15.24-22.21,9.51-2.39,18.7,2,23.06,11.24,1.06,2.23,1.87,4.58,2.8,6.87Zm-4.89-2.47c0-9.8-6.84-16.68-16.68-16.67-8.07,0-14.63,7.28-14.77,16.41-.15,10,6.25,17,15.52,17.12C1050,625.44,1056.86,618.19,1056.9,608.51Z"/><path class="cls-1" d="M270.62,212.34c1.54-1.46,2.88-2.67,4.15-3.94,10.47-10.51,20.81-21.14,31.42-31.5,12.57-12.29,31.06-12.61,43.59-.43q22.77,22.11,44.81,45c10.94,11.29,11,29,.46,40.88-3.76,4.23-7.93,8.09-11.94,12.09L274.36,382.72c-1.16,1.15-2.4,2.22-3.78,3.49-1.39-1.3-2.62-2.38-3.78-3.53q-59.16-58.89-118.32-117.81c-13.72-13.67-13.67-32.52,0-46.16s27.07-27.14,40.65-40.66c14.07-14,33-14.05,47.06-.07,10.15,10.12,20.21,20.32,30.33,30.47C267.77,209.72,269.11,210.92,270.62,212.34Z"/><path class="cls-1" d="M993.73,232.6H931.38c-5.07-16.46-16.88-18.49-32.09-17.35-1.33.1-2.64.37-4,.51-7.45.76-11.8,4.62-12.59,11.19s2.61,11.91,10,14c15.66,4.5,31.52,8.31,47.08,13.12,11.07,3.42,22.58,6.61,32.49,12.33,24.87,14.35,33.55,42.22,23.89,71.91-7.17,22-23.06,35.23-44.54,41.4-33.24,9.54-66.52,10.22-98.43-5.17-24-11.56-35.51-32.06-38.58-58.36H878.2c2.94,4.87,5.26,9.86,8.62,14,4.06,5,10.39,6.08,16.39,5.92a116.85,116.85,0,0,0,23-2.5c5.76-1.34,8.8-6.3,8.86-12.5,0-5.65-3-10.41-9.19-12.28-12.87-3.94-26-7.08-38.85-11.06-12.54-3.88-25.34-7.39-37.23-12.81-30.74-14-36.84-46.09-29.49-71.8,5.38-18.85,17.82-31.76,36.1-37.86,31.17-10.4,62.88-11.7,94-.15C976.53,184.82,990.24,204.7,993.73,232.6Z"/><path class="cls-1" d="M632.15,251.57H568.81c-.43-2.39-.74-4.7-1.25-7-3.38-15-14.6-24.17-30.33-24.81-21.21-.86-33.82,7.91-39.37,28.44a106.58,106.58,0,0,0,.85,59.17c7.14,23.84,33.13,34.36,55.24,22.73,8.86-4.66,13.64-12.41,15.83-21.94.52-2.26.85-4.57,1.33-7.21h62.62a99.39,99.39,0,0,1-10.66,40.39c-11.23,22.16-30,35-53.27,41.14-24.92,6.57-50.13,6.59-74.93-1.24-32.27-10.2-52.75-32.31-61.93-64.43-8.24-28.79-8.86-57.91,1.83-86.39,14.6-39,44.12-58.36,84.47-62.34,18.33-1.81,36.63-.44,54.34,5.25,32.49,10.45,50.94,33.06,57.06,66.23C631.33,243.34,631.61,247.16,632.15,251.57Z"/><path class="cls-1" d="M686.73,173.23l34.25,132,1.1.17q18.38-66.17,36.74-132.3H824c-4,11.9-7.76,23.4-11.64,34.86q-28.3,83.39-56.55,166.8c-1.35,4-3.11,5.31-7.31,5.26-19-.24-38-.14-57-.06-2.77,0-4.42-.43-5.44-3.53Q653.17,276.21,620,176c-.25-.78-.38-1.6-.66-2.8Z"/><path d="M316.71,511.49v-64.6H297.43V428.3H360.5v18.35H341.19V609.33h19.46v18.45H297.43V609.56h19.21V530.23h-100v79.11h19.1v18.54H172.82V609.54H192V446.83H172.88V428.36H235.7v18.16H216.62v65Z"/><path d="M904.75,609.21v18.24H845.52V609.59h18.09V446.07h-18v-17.9H886v76.29a18.45,18.45,0,0,0,2.08-1.49c27.45-28.68,78-20.33,93.82,15.92a69.74,69.74,0,0,1,5.71,24.57c.87,21,.44,42,.54,63,0,1,.12,1.95.22,3.41h18.23v18H947V610H964.8a7,7,0,0,0,.6-1.84c-.1-22.33.7-44.71-.59-67-1.55-26.93-20.53-40.63-47.18-35.8-19,3.44-30.13,14.87-30.83,34.22-.83,22.94-.19,45.93-.19,69.58Z"/><path d="M511.65,566.07H392.93c.42,11.18,3.45,21,10.15,29.37,13,16.26,30.71,19.41,50,16.89,13.46-1.76,24.56-8,32.09-19.78a4.52,4.52,0,0,1,3.23-1.66c6.49-.15,13-.07,21.16-.07-4,6-6.84,11.6-10.8,16.22-16.49,19.22-38.22,26.07-62.69,24.3-23.53-1.69-42.82-11.76-55.56-32.37-16.87-27.34-13.64-67.18,7.91-91,16-17.63,37-22.61,59.9-21.58,15.64.7,29.73,5.72,41.55,16.11,14.05,12.35,20.25,28.56,21.74,46.78C512,554.72,511.65,560.21,511.65,566.07Zm-23.72-17.48c-.68-22.25-19.06-47-51.57-43.67-27.09,2.81-43.46,21.79-43.93,43.67Z"/><path d="M832.52,628.28c-12.94,3.3-25.18,2.45-36.61-3.78-8-4.37-11.79-12-13-20.83a101.51,101.51,0,0,1-1-13.94c-.09-25.32,0-50.65,0-76V508H760.65V489.72h21.1V455.09h22.84v34.74h27.92V508H805.07c-.11,2-.28,3.58-.28,5.17q0,39.5,0,79c0,15.3,5.44,20.12,20.63,18.54,2.27-.24,4.55-.45,7.1-.7Z"/><path d="M696.77,428.13h41v6q0,78.21.06,156.4a52.7,52.7,0,0,0,1.58,12.3c1.4,5.69,5,8.19,10.92,8.27,1.83,0,3.67,0,5.5-.13s3.62-.39,5.67-.62V627.7c-21.43,9.71-44.24-4.32-45.7-28.2-.37-6-.17-12-.17-18q0-64.71,0-129.41v-5.86H696.77Z"/><path class="cls-2" d="M599.29,613.15c-22.56-.43-39.76-13.4-45.71-35.34-5.7-21-3.15-41,11.68-57.59,14.13-15.8,32.6-19,52.07-12.19,17.72,6.2,26.19,20.9,29.32,38.55,3.27,18.49.16,35.91-12.24,50.67C625.35,608,613.52,613.43,599.29,613.15Z"/><path class="cls-2" d="M1056.9,608.51c0,9.68-6.89,16.93-15.93,16.86-9.27-.07-15.67-7.13-15.52-17.12.14-9.13,6.7-16.41,14.77-16.41C1050.06,591.83,1056.93,598.71,1056.9,608.51Zm-11.1,3.29,1.48-.09c1-3,2.73-6,2.72-9,0-1.7-2.63-4.47-4.46-4.85-3.75-.76-7.77-.22-11.74-.22,0,7-.13,13.5.12,19.94,0,1.09,1.75,2.11,2.68,3.16l1.49-1v-8.86c7.16-.52,5.13,10.36,12.83,9.22C1049,617.08,1047.42,614.44,1045.8,611.8Z"/><path class="cls-2" d="M487.93,548.59h-95.5c.47-21.88,16.84-40.86,43.93-43.67C468.87,501.55,487.25,526.34,487.93,548.59Z"/><path d="M1045.8,611.8c1.62,2.64,3.24,5.28,5.12,8.36-7.7,1.14-5.67-9.74-12.83-9.22v8.86l-1.49,1c-.93-1-2.64-2.07-2.68-3.16-.25-6.44-.12-12.9-.12-19.94,4,0,8-.54,11.74.22,1.83.38,4.46,3.15,4.46,4.85,0,3-1.72,6-2.72,9Zm-8.79-2.95c3.51-1.29,6.29-2.22,9-3.41.3-.14.18-2.45-.16-2.57-2.73-1-5.56-1.66-8.79-2.55Z"/><path class="cls-2" d="M1037,608.85v-8.53c3.23.89,6.06,1.58,8.79,2.55.34.12.46,2.43.16,2.57C1043.3,606.63,1040.52,607.56,1037,608.85Z"/></g></svg>