<svg id="Layer_7" data-name="Layer 7" xmlns="http://www.w3.org/2000/svg" viewBox="0 0 1142.98 1340.47"><defs><style>.cls-1{fill:#df0000;}.cls-2{fill:#fff;}.cls-3{fill:none;stroke:#000;stroke-miterlimit:10;stroke-width:13px;stroke-dasharray:23.84 23.84;}</style></defs><g id="DcPYvs.tif"><path d="M1237.58-249.56c-5.09-.78-10.26-1.18-15.24-2.4-27.88-6.79-44.76-24.92-50.95-52.38-6.59-29.19-.24-55.64,22.51-76,26.47-23.7,67.78-20.91,91.9,5.11a11.45,11.45,0,0,1,1.39,2.56l1.35-.8v-18.86h40.69v17.71h-18.07v102.12h18.1v18.12h-40.54v-19.38a32.6,32.6,0,0,0-3,2.54c-10.86,12.35-24.71,18.8-40.82,20.88a32,32,0,0,0-3.35.8Zm2.52-19.84c14.23.29,26.05-5.11,35.11-15.89,12.4-14.76,15.52-32.18,12.25-50.67-3.13-17.65-11.6-32.35-29.32-38.55-19.48-6.81-37.94-3.61-52.07,12.19-14.83,16.58-17.38,36.59-11.68,57.59C1200.34-282.79,1217.53-269.82,1240.1-269.4Z" transform="translate(-559.62 715.52)"/><path d="M1702.6-271.56c-.61,1.88-1.16,3.78-1.85,5.63a20.43,20.43,0,0,1-22.6,13.25c-9.93-1.56-16.21-8.64-16.66-18.78-.49-11.39,5.2-19.68,15.25-22.21,9.51-2.4,18.7,2.05,23.06,11.24,1.06,2.23,1.87,4.57,2.8,6.87Zm-4.9-2.47c0-9.8-6.83-16.68-16.67-16.67-8.07,0-14.63,7.28-14.77,16.4-.15,10,6.25,17.06,15.52,17.13C1690.82-257.1,1697.67-264.35,1697.7-274Z" transform="translate(-559.62 715.52)"/><path class="cls-1" d="M911.42-670.2c1.55-1.46,2.89-2.67,4.16-3.94,10.47-10.51,20.81-21.14,31.42-31.51,12.56-12.28,31.06-12.6,43.59-.42q22.77,22.11,44.8,45c10.95,11.29,11,29,.46,40.88-3.75,4.23-7.92,8.09-11.94,12.09L915.17-499.82c-1.16,1.15-2.4,2.22-3.78,3.49-1.4-1.3-2.62-2.38-3.78-3.53q-59.18-58.89-118.32-117.81c-13.72-13.67-13.68-32.52,0-46.16s27.07-27.14,40.64-40.66c14.08-14,33-14,47.07-.07,10.14,10.12,20.21,20.32,30.33,30.47C908.58-672.82,909.92-671.62,911.42-670.2Z" transform="translate(-559.62 715.52)"/><path class="cls-1" d="M1634.54-649.94h-62.35c-5.07-16.46-16.88-18.49-32.1-17.35-1.32.1-2.63.37-3.95.5-7.45.76-11.81,4.63-12.59,11.2s2.6,11.91,10,14c15.66,4.5,31.52,8.31,47.08,13.12,11.07,3.42,22.58,6.61,32.49,12.33,24.87,14.35,33.55,42.22,23.89,71.91-7.17,22-23.06,35.23-44.54,41.39-33.25,9.54-66.53,10.23-98.43-5.16-24-11.57-35.51-32.06-38.58-58.36H1519c2.94,4.87,5.26,9.86,8.62,14,4.06,5,10.39,6.08,16.39,5.92a116.93,116.93,0,0,0,23-2.5c5.76-1.34,8.79-6.3,8.85-12.5.06-5.66-3-10.41-9.18-12.29-12.87-3.93-26-7.08-38.86-11-12.54-3.88-25.33-7.39-37.22-12.81-30.75-14-36.84-46.09-29.49-71.81,5.38-18.84,17.82-31.75,36.1-37.85,31.17-10.4,62.88-11.7,94-.15C1617.34-697.72,1631-677.84,1634.54-649.94Z" transform="translate(-559.62 715.52)"/><path class="cls-1" d="M1273-631h-63.34c-.43-2.38-.74-4.69-1.25-6.95-3.38-15-14.6-24.17-30.33-24.81-21.21-.87-33.82,7.91-39.37,28.44a106.49,106.49,0,0,0,.85,59.17c7.13,23.83,33.13,34.35,55.24,22.73,8.85-4.66,13.64-12.41,15.83-21.94.52-2.26.84-4.57,1.32-7.21h62.63a99.24,99.24,0,0,1-10.67,40.39c-11.22,22.15-30,35-53.26,41.14-24.92,6.57-50.13,6.59-74.93-1.24-32.27-10.2-52.75-32.31-61.93-64.43-8.24-28.8-8.86-57.91,1.82-86.4,14.61-38.94,44.13-58.35,84.48-62.33,18.33-1.81,36.63-.44,54.34,5.25,32.48,10.45,50.94,33.06,57.06,66.23C1272.14-639.2,1272.41-635.38,1273-631Z" transform="translate(-559.62 715.52)"/><path class="cls-1" d="M1327.54-709.32l34.25,132.05,1.09.17,36.75-132.3h65.21c-4,11.9-7.75,23.39-11.64,34.86q-28.29,83.38-56.55,166.8c-1.35,4-3.11,5.31-7.31,5.26-19-.24-38-.15-57-.06-2.77,0-4.42-.43-5.44-3.54Q1294-606.32,1260.81-706.51c-.25-.78-.38-1.6-.66-2.81Z" transform="translate(-559.62 715.52)"/><path d="M957.51-371v-64.6H938.24v-18.6h63.07v18.36H982v162.68h19.46v18.45H938.24V-273h19.21v-79.33h-100v79.1h19.1v18.55H813.63V-273h19.15v-162.7H813.69v-18.47H876.5V-436H857.43v65Z" transform="translate(-559.62 715.52)"/><path d="M1545.56-273.33v18.24h-59.24V-273h18.1V-436.47h-18v-17.9h40.42v76.29a19.91,19.91,0,0,0,2.08-1.49c27.44-28.68,78-20.34,93.82,15.92a69.91,69.91,0,0,1,5.71,24.56c.87,21,.44,42,.54,63,0,1,.12,1.94.22,3.41h18.23v18h-59.62v-17.83h17.82a8,8,0,0,0,.6-1.84c-.1-22.33.69-44.71-.59-67-1.56-26.92-20.54-40.62-47.18-35.79-19,3.44-30.13,14.87-30.83,34.22-.83,22.93-.2,45.92-.2,69.58Z" transform="translate(-559.62 715.52)"/><path d="M1152.45-316.47H1033.74c.42,11.18,3.45,21,10.15,29.37,13,16.26,30.71,19.41,50,16.89,13.46-1.76,24.56-8,32.09-19.78a4.52,4.52,0,0,1,3.23-1.66c6.48-.16,13-.08,21.16-.08-4,6.05-6.84,11.61-10.8,16.23-16.49,19.22-38.22,26.06-62.69,24.3-23.53-1.7-42.83-11.76-55.56-32.38-16.87-27.33-13.64-67.18,7.9-91,16-17.63,37-22.61,59.91-21.59,15.63.7,29.73,5.73,41.55,16.12,14,12.35,20.24,28.56,21.74,46.78C1152.83-327.82,1152.45-322.34,1152.45-316.47Zm-23.71-17.48c-.68-22.25-19.06-47-51.57-43.67-27.09,2.81-43.46,21.79-43.93,43.67Z" transform="translate(-559.62 715.52)"/><path d="M1473.33-254.26c-12.94,3.3-25.18,2.45-36.62-3.79-8-4.36-11.78-12-13-20.82a101.51,101.51,0,0,1-1-13.94c-.09-25.33,0-50.65,0-76v-5.8h-21.22v-18.23h21.1v-34.63h22.83v34.74h27.92v18.18h-27.43c-.11,2-.28,3.58-.28,5.17q0,39.5,0,79c0,15.3,5.44,20.12,20.63,18.54,2.27-.24,4.55-.45,7.1-.7Z" transform="translate(-559.62 715.52)"/><path d="M1337.58-454.41h41v6q0,78.19.07,156.4a52.77,52.77,0,0,0,1.58,12.3c1.4,5.69,5,8.18,10.92,8.27,1.83,0,3.67,0,5.49-.13s3.63-.39,5.68-.62v17.37c-21.43,9.71-44.24-4.32-45.7-28.2-.37-6-.17-12-.17-18q0-64.71,0-129.42v-5.85h-18.88Z" transform="translate(-559.62 715.52)"/><path class="cls-2" d="M1240.1-269.4c-22.57-.42-39.76-13.39-45.71-35.33-5.7-21-3.15-41,11.68-57.59,14.13-15.8,32.59-19,52.07-12.19,17.72,6.2,26.19,20.9,29.32,38.55,3.27,18.49.15,35.91-12.25,50.67C1266.15-274.51,1254.33-269.11,1240.1-269.4Z" transform="translate(-559.62 715.52)"/><path class="cls-2" d="M1697.7-274c0,9.68-6.88,16.93-15.92,16.86-9.27-.07-15.67-7.13-15.52-17.13.14-9.12,6.7-16.4,14.77-16.4C1690.87-290.71,1697.74-283.83,1697.7-274Zm-11.09,3.28,1.47-.09c1-3,2.73-6,2.73-9,0-1.7-2.63-4.48-4.47-4.85-3.75-.76-7.76-.23-11.74-.23,0,7-.13,13.5.13,19.95,0,1.09,1.75,2.1,2.68,3.15l1.49-1v-8.86c7.15-.52,5.13,10.36,12.83,9.21Z" transform="translate(-559.62 715.52)"/><path class="cls-2" d="M1128.74-333.95h-95.5c.47-21.88,16.84-40.86,43.93-43.67C1109.68-381,1128.06-356.2,1128.74-333.95Z" transform="translate(-559.62 715.52)"/><path d="M1686.61-270.75l5.12,8.36c-7.7,1.15-5.68-9.73-12.83-9.21v8.86l-1.49,1c-.93-1.05-2.64-2.06-2.68-3.15-.26-6.45-.13-12.91-.13-19.95,4,0,8-.53,11.74.23,1.84.37,4.46,3.15,4.47,4.85,0,3-1.72,6-2.73,9Zm-8.8-2.95c3.51-1.28,6.29-2.21,9-3.4.3-.14.18-2.45-.16-2.57-2.73-1-5.56-1.66-8.8-2.55Z" transform="translate(-559.62 715.52)"/><path class="cls-2" d="M1677.81-273.7v-8.52c3.24.89,6.07,1.58,8.8,2.55.34.12.46,2.43.16,2.57C1684.1-275.91,1681.32-275,1677.81-273.7Z" transform="translate(-559.62 715.52)"/></g><path class="cls-3" d="M1035.33,360.64c0,129.92-105.31,235.23-235.22,235.23-312-12.39-311.94-458.11,0-470.45,129.91,0,235.22,105.31,235.22,235.22Z" transform="translate(-559.62 715.52)"/><circle class="cls-1" cx="406.5" cy="1244.21" r="96.26"/><g id="a4T58s"><path d="M636.94,360.23v19.26h8v5.79H622.5v-5.79h8V327.82h-8v-5.89h25.87a27.5,27.5,0,0,1,11.12,2,18.53,18.53,0,0,1,10.76,19c-.86,6.67-4,11.88-10,15.15a19.73,19.73,0,0,1-9.18,2.14c-4.29.07-8.58,0-12.87,0Zm0-6.05c5.17,0,10.28.31,15.33-.06,9.39-.71,14.7-11.32,9.93-19.45-2.72-4.62-6.94-6.71-12.17-6.84-4.15-.1-8.3,0-12.45,0-.19,0-.39,0-.64.06Z" transform="translate(-559.62 715.52)"/><path d="M950.36,354.17c0-4.67-.23-9.35,0-14,.43-7.34,4.3-12.73,10.42-16.57,11-6.9,24.78-2.56,30.84,8.05a20.26,20.26,0,0,1,2.64,9.9c.08,7.77.12,15.55,0,23.32-.17,11.43-8.14,20.15-19.52,21.57A22,22,0,0,1,951,370.1a34.59,34.59,0,0,1-.75-6.83c-.12-3,0-6.07,0-9.1Zm37.7-.72h0c0-3.9.15-7.82-.06-11.71a18.73,18.73,0,0,0-1.38-6.47c-2.35-5.31-6.64-8.23-12.4-9a15.94,15.94,0,0,0-15.43,7.38,18.93,18.93,0,0,0-2.29,9.85c0,4.53,0,9.07,0,13.6,0,3.2-.07,6.43.22,9.61.56,6,3.61,10.44,9.2,12.8a15.68,15.68,0,0,0,16.3-2c4.19-3.12,5.75-7.57,5.84-12.62C988.11,361.05,988.06,357.25,988.06,353.45Z" transform="translate(-559.62 715.52)"/><path d="M882.48,379.81h26.19v-9.72h5.63v15.19H874c0-1.72,0-3.48,0-5.24,0-.28.36-.57.6-.8l27-26.3a28.53,28.53,0,0,0,5.17-6.4c4.59-8.17-.85-18.89-10.16-20-8.61-1-15.36,4.53-16,13.17,0,.52-.07,1-.11,1.66h-6.2A46,46,0,0,1,875,336a20.09,20.09,0,0,1,21.2-15.66,19.42,19.42,0,0,1,18.45,19.25,18.5,18.5,0,0,1-5,13.45c-2.89,3.16-6,6.16-9,9.15-5.8,5.64-11.66,11.22-17.5,16.82a8.15,8.15,0,0,1-.76.55Z" transform="translate(-559.62 715.52)"/><path d="M797.75,364.18a16.43,16.43,0,0,0,2.6,8.39c7.69,12.28,24.86,11.08,31.4.36a1.22,1.22,0,0,1,.76-.58c1.87-.05,3.74,0,5.66,0-3.35,8.57-14.3,16.42-27,13.77a24.28,24.28,0,0,1,8.13-47.83,24.31,24.31,0,0,1,20.91,25.92Zm.09-4.84h36.85c-1-8.6-8.89-16.19-19.42-15.94C805.25,343.64,798.24,352.51,797.84,359.34Z" transform="translate(-559.62 715.52)"/><path d="M714.14,344.17h-7.66v-5.42h13.58v41.11h7.81v5.43h-13.6v-7.52c-.29.32-.41.41-.49.53-4.56,7.78-15.06,10.76-23.76,6.05-5.82-3.15-9.1-8.15-9.38-14.73-.32-7.38-.18-14.78-.24-22.17,0-1,0-2.09,0-3.25h-7.71v-5.46h13.57V340c0,8.13-.06,16.26,0,24.38a30.79,30.79,0,0,0,.76,7.25c1.89,7.48,9.16,11.24,16.8,8.89,6.27-1.92,10-6.64,10.22-13.25.18-7.5.11-15,.15-22.49A5.65,5.65,0,0,0,714.14,344.17Z" transform="translate(-559.62 715.52)"/><path d="M781.26,342.58v-3.82H786v11.66h-4.7a7.57,7.57,0,0,0-4.82-6.62,10.9,10.9,0,0,0-10.86.91c-3.9,2.62-4.61,9.59.73,12.11a41.22,41.22,0,0,0,7.54,2.34,40,40,0,0,1,8.54,2.7c7.32,3.69,8,11.53,5.24,17-2.35,4.65-6.41,6.78-11.27,7.49a23.81,23.81,0,0,1-6.74-.16,12.17,12.17,0,0,1-8.21-5.11c-.23-.31-.44-.61-.81-1.13v5.35h-4.75V372.08c1.44,0,2.86,0,4.28,0,.19,0,.48.38.52.62,1.22,8,11.49,11.55,17.89,7.39a8.43,8.43,0,0,0,3.74-9.33,6,6,0,0,0-3.67-4.29,54.84,54.84,0,0,0-6.76-2.05c-3.35-.83-6.76-1.4-9.81-3.15-6.53-3.72-8.22-12.87-3.36-18.49,2.32-2.69,5.46-3.9,8.86-4.48a14.51,14.51,0,0,1,10,1.41A32.66,32.66,0,0,1,781.26,342.58Z" transform="translate(-559.62 715.52)"/><path d="M729.92,379.86h8.18V327.43h-7.65V322H744v57.85h7.66v5.45H729.92Z" transform="translate(-559.62 715.52)"/><path d="M936.56,385.3h-6v-9.5h6Z" transform="translate(-559.62 715.52)"/></g><g id="fftQw8"><path class="cls-2" d="M958.49,548.94h5.12v3.57H949.5V549h5.06a5.26,5.26,0,0,0,.06-.6c0-4.65,0-9.31-.09-14a17.75,17.75,0,0,0-.49-3.54c-.71-3.26-3-4.9-6.06-5.59a8.59,8.59,0,0,0-10.09,6,10.2,10.2,0,0,0-.34,2.52c0,4.88,0,9.77,0,14.65,0,.14,0,.27,0,.49h5.05v3.6H928.53V549h5.07c0-.27,0-.47,0-.66,0-4.13.07-8.25,0-12.37a25.23,25.23,0,0,0-.71-5.18c-.9-3.7-3.16-5.45-7-5.67-5.09-.3-8.76,2.81-9.22,7.89-.16,1.7-.13,3.41-.14,5.11,0,3.34,0,6.68,0,10v.82h5.11v3.59H907.57V549h5.06V525.39h-5.06v-3.61h8.95v5.08a10.37,10.37,0,0,1,10.24-5.5c4.56.29,7.52,2.87,9.46,6.93a4.25,4.25,0,0,0,.25-.4,11.74,11.74,0,0,1,11.71-6.54,10.88,10.88,0,0,1,10.22,10.88c.14,5.25.07,10.5.09,15.75Z" transform="translate(-559.62 715.52)"/><path class="cls-2" d="M965.32,552.52v-3.8h5.31V514.56h-5.3v-3.88h19.12c5.92,0,11,1.95,15.09,6.41,8.27,9.13,6.91,24.41-2.83,31.69a18.59,18.59,0,0,1-11.07,3.73c-6.68.11-13.36,0-20,0Zm9.6-3.91c.09,0,.13.07.17.07,3.77,0,7.55.05,11.32-.18A13.64,13.64,0,0,0,996,544a18.5,18.5,0,0,0,2.8-20.77,14.6,14.6,0,0,0-10.8-8.29c-4.3-.76-8.67-.33-13-.3Z" transform="translate(-559.62 715.52)"/><path class="cls-2" d="M1011.33,548.72v3.8h-3.43V541.31c1.07,0,2.12,0,3.17,0,.14,0,.34.42.39.66a8.74,8.74,0,0,0,4,6.19c4.2,2.63,10.15,1.46,12.74-2.51a7.66,7.66,0,0,0-3.3-11.42,65.11,65.11,0,0,0-7.43-2.28,15.66,15.66,0,0,1-6.66-3.34,10.91,10.91,0,0,1,2.92-17.8,12.47,12.47,0,0,1,10.69-.2,8.52,8.52,0,0,1,3.59,3.1v-3h3.48v10c-1.07,0-2.1,0-3.13,0-.15,0-.38-.33-.42-.54a7.72,7.72,0,0,0-4.35-6,8.65,8.65,0,0,0-8.34.34,7.19,7.19,0,0,0,1,12.9c2.13.78,4.37,1.25,6.57,1.83a18.7,18.7,0,0,1,5.45,2.09c4.35,2.78,5.92,6.8,5.31,11.85a12.22,12.22,0,0,1-10.66,10.12,12.74,12.74,0,0,1-8-1.39A14.52,14.52,0,0,1,1011.33,548.72Z" transform="translate(-559.62 715.52)"/></g></svg>