<svg id="Layer_12" data-name="Layer 12" xmlns="http://www.w3.org/2000/svg" viewBox="0 0 1002.93 685.48"><defs><style>.cls-1{fill:#fff;}</style></defs><path class="cls-1" d="M1172.21,601.72v4.58c0,142.29-115.74,258-258,258H911a468.4,468.4,0,0,1-192.54,165V865.33c.5-.33.91-.75,1.41-1.08A325.65,325.65,0,0,0,826.06,722.79h88.2A116.61,116.61,0,0,0,1030.75,606.3v-4.58A116.61,116.61,0,0,0,914.26,485.23h-88.2A325.53,325.53,0,0,0,719.8,343.77H914.26C1056.47,343.77,1172.21,459.52,1172.21,601.72Z" transform="translate(-169.28 -343.77)"/><path class="cls-1" d="M523.13,864.28h-95.9c-142.24,0-258-115.71-258-257.95v-4.61c0-142.23,115.71-258,258-258h95.9c142.24,0,258,115.72,258,258v4.61C781.09,748.57,665.37,864.28,523.13,864.28Zm-95.9-379A116.63,116.63,0,0,0,310.74,601.72v4.61A116.62,116.62,0,0,0,427.23,722.82h95.9a116.62,116.62,0,0,0,116.5-116.49v-4.61a116.63,116.63,0,0,0-116.5-116.49Z" transform="translate(-169.28 -343.77)"/></svg>