<svg id="Layer_6" data-name="Layer 6" xmlns="http://www.w3.org/2000/svg" xmlns:xlink="http://www.w3.org/1999/xlink" viewBox="0 0 578.25 578.76"><defs><style>.cls-1{fill:url(#linear-gradient);}.cls-2{fill:url(#linear-gradient-2);}.cls-3{fill:url(#linear-gradient-3);}.cls-4{fill:url(#linear-gradient-4);}.cls-5{fill:url(#linear-gradient-5);}.cls-6{fill:url(#linear-gradient-6);}.cls-7{fill:url(#linear-gradient-7);}.cls-8{fill:url(#linear-gradient-8);}.cls-9{fill:url(#linear-gradient-9);}.cls-10{fill:url(#linear-gradient-10);}.cls-11{fill:url(#linear-gradient-11);}.cls-12{fill:url(#linear-gradient-12);}.cls-13{fill:url(#linear-gradient-13);}.cls-14{fill:url(#linear-gradient-14);}.cls-15{fill:url(#linear-gradient-15);}.cls-16{fill:url(#linear-gradient-16);}.cls-17{fill:url(#linear-gradient-17);}.cls-18{fill:url(#linear-gradient-18);}.cls-19{fill:url(#linear-gradient-19);}.cls-20{fill:url(#linear-gradient-20);}.cls-21{fill:url(#linear-gradient-21);}.cls-22{fill:url(#linear-gradient-22);}.cls-23{fill:url(#linear-gradient-23);}.cls-24{fill:url(#linear-gradient-24);}.cls-25{fill:url(#linear-gradient-25);}.cls-26{fill:url(#linear-gradient-26);}.cls-27{fill:url(#linear-gradient-27);}.cls-28{fill:url(#linear-gradient-28);}.cls-29{fill:url(#linear-gradient-29);}.cls-30{fill:url(#linear-gradient-30);}.cls-31{fill:url(#linear-gradient-31);}.cls-32{fill:url(#linear-gradient-32);}.cls-33{fill:url(#linear-gradient-33);}.cls-34{fill:url(#linear-gradient-34);}.cls-35{fill:url(#linear-gradient-35);}.cls-36{fill:url(#linear-gradient-36);}.cls-37{fill:url(#linear-gradient-37);}.cls-38{fill:url(#linear-gradient-38);}.cls-39{fill:url(#linear-gradient-39);}.cls-40{fill:url(#linear-gradient-40);}.cls-41{fill:url(#linear-gradient-41);}.cls-42{fill:url(#linear-gradient-42);}.cls-43{fill:url(#linear-gradient-43);}.cls-44{fill:url(#linear-gradient-44);}.cls-45{fill:url(#linear-gradient-45);}.cls-46{fill:url(#linear-gradient-46);}.cls-47{fill:url(#linear-gradient-47);}.cls-48{fill:url(#linear-gradient-48);}.cls-49{fill:url(#linear-gradient-49);}.cls-50{fill:url(#linear-gradient-50);}.cls-51{fill:url(#linear-gradient-51);}.cls-52{fill:url(#linear-gradient-52);}.cls-53{fill:url(#linear-gradient-53);}.cls-54{fill:url(#linear-gradient-54);}.cls-55{fill:url(#linear-gradient-55);}.cls-56{fill:url(#linear-gradient-56);}.cls-57{fill:url(#linear-gradient-57);}.cls-58{fill:url(#linear-gradient-58);}.cls-59{fill:url(#linear-gradient-59);}.cls-60{fill:url(#linear-gradient-60);}</style><linearGradient id="linear-gradient" x1="430.95" y1="317.97" x2="789.06" y2="317.97" gradientUnits="userSpaceOnUse"><stop offset="0" stop-color="#48a8bd"/><stop offset="0.26" stop-color="#caede2"/><stop offset="0.33" stop-color="#edffec"/><stop offset="0.68" stop-color="#fead68"/><stop offset="1" stop-color="#ed264e"/></linearGradient><linearGradient id="linear-gradient-2" x1="624.66" y1="427.68" x2="882.18" y2="427.68" gradientUnits="userSpaceOnUse"><stop offset="0" stop-color="#48a8bd"/><stop offset="0.33" stop-color="#edffec"/><stop offset="0.68" stop-color="#fead68"/><stop offset="1" stop-color="#ed264e"/></linearGradient><linearGradient id="linear-gradient-3" x1="743.05" y1="268.09" x2="903" y2="268.09" xlink:href="#linear-gradient-2"/><linearGradient id="linear-gradient-4" x1="324.79" y1="88.22" x2="464.5" y2="88.22" xlink:href="#linear-gradient-2"/><linearGradient id="linear-gradient-5" x1="324.76" y1="527.12" x2="464.52" y2="527.12" xlink:href="#linear-gradient-2"/><linearGradient id="linear-gradient-6" x1="763.25" y1="88.19" x2="903.01" y2="88.19" xlink:href="#linear-gradient-2"/><linearGradient id="linear-gradient-7" x1="524.69" y1="476.74" x2="624.02" y2="476.74" xlink:href="#linear-gradient-2"/><linearGradient id="linear-gradient-8" x1="524.02" y1="67.92" x2="643.85" y2="67.92" xlink:href="#linear-gradient-2"/><linearGradient id="linear-gradient-9" x1="823.91" y1="547.35" x2="902.98" y2="547.35" xlink:href="#linear-gradient-2"/><linearGradient id="linear-gradient-10" x1="703.31" y1="78.33" x2="743.44" y2="78.33" xlink:href="#linear-gradient-2"/><linearGradient id="linear-gradient-11" x1="843.03" y1="207.47" x2="902.03" y2="207.47" xlink:href="#linear-gradient-2"/><linearGradient id="linear-gradient-12" x1="664.46" y1="248.23" x2="742.81" y2="248.23" xlink:href="#linear-gradient-2"/><linearGradient id="linear-gradient-13" x1="663.64" y1="117.9" x2="703.41" y2="117.9" xlink:href="#linear-gradient-2"/><linearGradient id="linear-gradient-14" x1="504.96" y1="168.05" x2="563.27" y2="168.05" xlink:href="#linear-gradient-2"/><linearGradient id="linear-gradient-15" x1="664.33" y1="586.82" x2="742.8" y2="586.82" xlink:href="#linear-gradient-2"/><linearGradient id="linear-gradient-16" x1="584.76" y1="317.57" x2="643.07" y2="317.57" xlink:href="#linear-gradient-2"/><linearGradient id="linear-gradient-17" x1="524.79" y1="108.2" x2="564.09" y2="108.2" xlink:href="#linear-gradient-2"/><linearGradient id="linear-gradient-18" x1="484.32" y1="48.49" x2="504.24" y2="48.49" xlink:href="#linear-gradient-2"/><linearGradient id="linear-gradient-19" x1="743.42" y1="207.99" x2="763.34" y2="207.99" xlink:href="#linear-gradient-2"/><linearGradient id="linear-gradient-20" x1="624.72" y1="397.77" x2="663.71" y2="397.77" xlink:href="#linear-gradient-2"/><linearGradient id="linear-gradient-21" x1="324.78" y1="197.98" x2="345" y2="197.98" xlink:href="#linear-gradient-2"/><linearGradient id="linear-gradient-22" x1="863.69" y1="487.06" x2="901.93" y2="487.06" xlink:href="#linear-gradient-2"/><linearGradient id="linear-gradient-23" x1="723.52" y1="138.19" x2="743.45" y2="138.19" xlink:href="#linear-gradient-2"/><linearGradient id="linear-gradient-24" x1="843.71" y1="367.58" x2="882.06" y2="367.58" xlink:href="#linear-gradient-2"/><linearGradient id="linear-gradient-25" x1="744.12" y1="387.43" x2="762.63" y2="387.43" xlink:href="#linear-gradient-2"/><linearGradient id="linear-gradient-26" x1="564.79" y1="307.63" x2="583.27" y2="307.63" xlink:href="#linear-gradient-2"/><linearGradient id="linear-gradient-27" x1="325.63" y1="307.77" x2="344.03" y2="307.77" xlink:href="#linear-gradient-2"/><linearGradient id="linear-gradient-28" x1="365.36" y1="207.79" x2="384.08" y2="207.79" xlink:href="#linear-gradient-2"/><linearGradient id="linear-gradient-29" x1="784.14" y1="387.42" x2="802.67" y2="387.42" xlink:href="#linear-gradient-2"/><linearGradient id="linear-gradient-30" x1="883.74" y1="387.43" x2="902.07" y2="387.43" xlink:href="#linear-gradient-2"/><linearGradient id="linear-gradient-31" x1="485.26" y1="148.2" x2="503.6" y2="148.2" xlink:href="#linear-gradient-2"/><linearGradient id="linear-gradient-32" x1="644.45" y1="327.65" x2="663.09" y2="327.65" xlink:href="#linear-gradient-2"/><linearGradient id="linear-gradient-33" x1="684.37" y1="447.11" x2="702.83" y2="447.11" xlink:href="#linear-gradient-2"/><linearGradient id="linear-gradient-34" x1="644.51" y1="148.14" x2="662.73" y2="148.14" xlink:href="#linear-gradient-2"/><linearGradient id="linear-gradient-35" x1="565.11" y1="148.22" x2="583.26" y2="148.22" xlink:href="#linear-gradient-2"/><linearGradient id="linear-gradient-36" x1="445.29" y1="387.42" x2="463.48" y2="387.42" xlink:href="#linear-gradient-2"/><linearGradient id="linear-gradient-37" x1="524.93" y1="387.36" x2="543.19" y2="387.36" xlink:href="#linear-gradient-2"/><linearGradient id="linear-gradient-38" x1="704.29" y1="207.85" x2="722.64" y2="207.85" xlink:href="#linear-gradient-2"/><linearGradient id="linear-gradient-39" x1="325.66" y1="267.82" x2="343.97" y2="267.82" xlink:href="#linear-gradient-2"/><linearGradient id="linear-gradient-40" x1="504.88" y1="127.96" x2="523.5" y2="127.96" xlink:href="#linear-gradient-2"/><linearGradient id="linear-gradient-41" x1="505.13" y1="88.49" x2="523.38" y2="88.49" xlink:href="#linear-gradient-2"/><linearGradient id="linear-gradient-42" x1="803.9" y1="367.39" x2="822.48" y2="367.39" xlink:href="#linear-gradient-2"/><linearGradient id="linear-gradient-43" x1="684.53" y1="28.53" x2="702.75" y2="28.53" xlink:href="#linear-gradient-2"/><linearGradient id="linear-gradient-44" x1="604.76" y1="587.01" x2="623" y2="587.01" xlink:href="#linear-gradient-2"/><linearGradient id="linear-gradient-45" x1="624.61" y1="347.53" x2="642.81" y2="347.53" xlink:href="#linear-gradient-2"/><linearGradient id="linear-gradient-46" x1="823.72" y1="247.97" x2="842.04" y2="247.97" xlink:href="#linear-gradient-2"/><linearGradient id="linear-gradient-47" x1="485.35" y1="108.21" x2="503.6" y2="108.21" xlink:href="#linear-gradient-2"/><linearGradient id="linear-gradient-48" x1="724.24" y1="28.5" x2="742.41" y2="28.5" xlink:href="#linear-gradient-2"/><linearGradient id="linear-gradient-49" x1="485.35" y1="586.71" x2="503.77" y2="586.71" xlink:href="#linear-gradient-2"/><linearGradient id="linear-gradient-50" x1="505.16" y1="566.87" x2="523.7" y2="566.87" xlink:href="#linear-gradient-2"/><linearGradient id="linear-gradient-51" x1="624.65" y1="567.17" x2="643.04" y2="567.17" xlink:href="#linear-gradient-2"/><linearGradient id="linear-gradient-52" x1="664.73" y1="427.4" x2="683.15" y2="427.4" xlink:href="#linear-gradient-2"/><linearGradient id="linear-gradient-53" x1="823.66" y1="347.57" x2="842.04" y2="347.57" xlink:href="#linear-gradient-2"/><linearGradient id="linear-gradient-54" x1="664.58" y1="48.29" x2="682.86" y2="48.29" xlink:href="#linear-gradient-2"/><linearGradient id="linear-gradient-55" x1="445.08" y1="267.8" x2="463.42" y2="267.8" xlink:href="#linear-gradient-2"/><linearGradient id="linear-gradient-56" x1="544.79" y1="427.35" x2="563.05" y2="427.35" xlink:href="#linear-gradient-2"/><linearGradient id="linear-gradient-57" x1="764.34" y1="467.01" x2="782.48" y2="467.01" xlink:href="#linear-gradient-2"/><linearGradient id="linear-gradient-58" x1="364.82" y1="87.64" x2="423.34" y2="87.64" xlink:href="#linear-gradient-2"/><linearGradient id="linear-gradient-59" x1="364.83" y1="526.34" x2="423.27" y2="526.34" xlink:href="#linear-gradient-2"/><linearGradient id="linear-gradient-60" x1="803.29" y1="87.64" x2="861.77" y2="87.64" xlink:href="#linear-gradient-2"/></defs><g id="ccuPuH.tif"><path class="cls-1" d="M682,195.76c-3.48-5-3.58-10-.22-15.2,1.7-2.57,1.57-2.67-1.66-2.67-17.75,0-35.52,0-53.28.07-2.42,0-3.24-.72-2.92-3a19.81,19.81,0,0,0,0-2.67q0-23.15,0-46.32c0-4.9-2.73-7.58-7.62-7.61-3,0-6.07,0-9.1,0-3.45,0-3.45,0-3.45-3.58,0-4.46-.07-8.92,0-13.38,0-2.11-.51-2.63-2.34-1.39-5.3,3.57-10.56,3.29-15.65-.41-2-1.43-1.91-.27-1.91,1.22,0,10.08,0,20.17,0,30.24,0,4.33,2.87,7.11,7.27,7.15,3.31,0,6.62.14,9.91,0,2.16-.12,2.7.63,2.69,2.71-.1,11.33-.12,22.68,0,34,0,2.49-.71,3.13-3.14,3.1-9.64-.13-19.27-.07-28.91,0-4.8,0-7.69,2.89-7.71,7.62,0,3.21-.16,6.43,0,9.63.15,2.45-.79,3.1-3.07,3-3.21-.17-6.44-.06-9.64,0-4.64,0-7.14,2.5-7.18,7.08,0,3.38-.11,6.78,0,10.17.07,1.9-.35,2.71-2.48,2.65-5-.15-10-.12-15,0-1.84,0-2.5-.51-2.45-2.42.11-4.89,0-9.8,0-14.71,0-.68.31-1.54-.45-2s-1.38.23-1.91.61c-5.19,3.92-10.35,3.61-15.58.07-.54-.38-1.06-1.19-1.85-.64s-.38,1.31-.38,2c0,4.91-.07,9.82,0,14.72,0,1.71-.44,2.38-2.24,2.35-5.18-.11-10.36-.1-15.54,0-1.64,0-2.16-.52-2.13-2.15.08-5.18.1-10.35,0-15.53,0-1.8.64-2.27,2.35-2.23,4.64.09,9.28.05,13.92,0,.93,0,2.17.49,2.76-.41s-.57-1.76-1.05-2.51c-3-4.68-3.16-9.31-.16-14.05.5-.81,1.68-1.62,1.23-2.52-.61-1.21-2.09-.67-3.2-.67q-28,0-56,0H387.43c-.68,0-1.5-.31-2,.44-.36.56.14,1,.45,1.41q6.09,8.07.19,16.27c-1.1,1.55-.79,2.12,1.15,2.09,4.9-.07,9.82.06,14.72-.06,1.91-.05,2.7.39,2.63,2.5-.14,5-.12,10,0,15,0,1.86-.52,2.48-2.42,2.44-5-.12-10,0-15,0-1.49,0-2.34.11-1.12,1.85,3.77,5.33,3.87,10.77.05,16.12-1.41,2-.24,1.93,1.23,1.93,5,0,10,0,15,0,1.52,0,2.25.31,2.24,2.06q-.09,17.92,0,35.87c0,1.63-.51,2.18-2.15,2.15-4.91-.07-9.82-.13-14.72,0-2.33.08-3.1-.6-3.07-3,.13-10,.08-20,0-30a6.76,6.76,0,0,0-7.05-7.09c-3.48,0-7-.11-10.44,0-1.92.08-2.44-.62-2.39-2.45.11-5,0-10,0-15,0-1.33-.06-2.6-1.85-1.24-5.3,4-10.62,4.05-16,.14-1.44-1-2.37-1.14-2.36,1.14.06,10.09,0,20.18.07,30.26,0,4.32,3.26,7.25,7.6,7.29,3.3,0,6.61.14,9.9,0,2.19-.11,2.68.68,2.68,2.75q-.09,36.93,0,73.88c0,2.49-.82,2.93-3.06,2.9-9.54-.11-19.1-.06-28.65,0-5.52,0-8.37,2.86-8.37,8.4q0,31.18,0,62.37c0,7.14,0,14.28,0,21.42,0,4.48,2.88,7.7,7.18,7.72q22.9.15,45.79,0a6.7,6.7,0,0,0,6.9-7q.07-13,0-26c0-4.17-2.92-7-7.14-7-3.57,0-7.14-.06-10.71,0-1.49,0-2-.45-2-2q.06-17.92,0-35.87c0-1.61.7-1.93,2.1-1.92,5.26.05,10.54.06,15.8,0,1.5,0,2.05.49,2,2-.08,3.57-.06,7.14,0,10.7,0,4.34,2.88,7.11,7.26,7.16,3.21,0,6.44.16,9.63-.05,2.36-.15,3,.56,3,3-.1,16-.05,31.95-.05,47.92,0,6.51,2.57,9.09,9.05,9.09h67.2c3.51,0,3.51,0,3.51,3.41q0,44.31,0,88.61c0,4.42,2.7,7.52,6.89,7.57,10.26.09,20.52,0,30.79,0,1.32,0,2.23-.06,1-1.7-3.8-5.25-4.22-10.64-.4-16.11,1.25-1.8.74-2.45-1.41-2.41-4.91.07-9.82,0-14.73,0-1.65,0-2.42-.36-2.38-2.22.1-5.17.11-10.35,0-15.52,0-1.91.79-2.19,2.4-2.16,5,.07,10,0,15,0,.58,0,1.32.25,1.68-.44s-.18-1.15-.54-1.65c-3.68-5.06-3.85-10.17-.22-15.35.39-.55,1.14-1.11.82-1.86-.42-.95-1.42-.53-2.16-.53-4.81,0-9.64-.12-14.45,0-2.07.06-2.57-.66-2.53-2.61.13-4.9.16-9.82,0-14.72-.07-2.23.76-2.71,2.78-2.63,3.38.13,6.78.12,10.17,0,4.17-.14,6.92-2.86,6.93-6.93q.07-23,0-46.05c0-4.19-2.74-6.81-6.92-6.88-3.48-.06-7-.09-10.44,0-1.78.06-2.55-.37-2.51-2.34q.19-7.64,0-15.26c0-2,.74-2.38,2.51-2.34,4.82.09,9.64.05,14.46,0,2.6,0,2.84-.36,1.45-2.46-3.3-5-3.51-10-.09-15,1.35-2,.79-2.47-1.45-2.45-9.65.07-19.29,0-28.93,0-5.09,0-7.74,2.65-7.75,7.7,0,9.55-.09,19.09.05,28.64,0,2.58-.42,3.72-3.31,3.46a91.48,91.48,0,0,0-9.37-.06c-4.36.05-7.18,2.83-7.25,7.19,0,3.48-.06,6.95,0,10.44,0,1.51-.29,2.26-2.05,2.25q-17.94-.11-35.87,0c-1.63,0-2.17-.52-2.17-2.15.06-11.86,0-23.73,0-35.61,0-1.48.46-2.06,2-2,3.57.09,7.14.06,10.71,0,4.6-.06,7.45-2.93,7.49-7.58,0-3.31.13-6.61,0-9.91-.11-2.19.75-2.78,2.8-2.72,4.46.1,8.93,0,13.39,0,3,0,3.1-.17,1.55-2.89a15.58,15.58,0,0,1-1.46-2.84,12.11,12.11,0,0,1,1.44-11c1.89-2.86,1.65-3.16-1.68-3.16-4.56,0-9.12-.06-13.66,0-1.66,0-2.41-.36-2.38-2.21.11-5.17.08-10.35,0-15.52,0-1.61.47-2.2,2.13-2.17,5.18.07,10.36.1,15.53,0,1.8,0,2.28.6,2.25,2.31-.1,4.91-.05,9.82,0,14.72,0,.68-.33,1.57.37,2s1.33-.3,1.89-.68c5.13-3.56,10.23-3.69,15.37,0,.55.4,1.17,1.12,1.89.67s.34-1.31.34-2q0-14.59,0-29.18c0-5-2.78-7.68-7.85-7.68-9.82,0-19.63-.05-29.45,0-1.83,0-2.54-.47-2.46-2.39.14-3.39.08-6.79,0-10.18-.08-4.59-2.81-7.28-7.37-7.31-3.48,0-7-.07-10.44,0-1.7.05-2.41-.52-2.39-2.29.08-5.18.1-10.36,0-15.54,0-1.93.75-2.45,2.54-2.41,3.4.1,6.79.06,10.18,0,4.71,0,7.43-2.72,7.49-7.47,0-3.4.06-6.78,0-10.17,0-1.56.36-2.25,2.08-2.23,5.26.09,10.54.09,15.8,0,1.78,0,2.05.77,2,2.26-.07,3.57-.08,7.14,0,10.71a6.57,6.57,0,0,0,6.9,6.89c3.48.06,7,.13,10.44,0,2-.08,2.57.58,2.56,2.57-.09,9.82-.05,19.63,0,29.45q0,8,8.06,8.05c9.74,0,19.46.08,29.19,0,2.24,0,2.83.65,2.82,2.85-.08,16.43,0,32.84,0,49.26,0,5.24,2.64,7.83,7.92,7.86,3,0,6.08.13,9.1,0,2.2-.13,3,.55,2.88,2.82-.16,4.9-.07,9.81,0,14.72,0,.88-.27,2.4,1.45,1.19,5.24-3.66,10.37-4.7,15.84-.24,2,1.65,2.54,1.18,2.55-1.62,0-4.82.07-9.65,0-14.46,0-1.91.62-2.44,2.45-2.4,4.91.11,9.82,0,14.73,0,.67,0,1.53.33,1.95-.46s-.37-1.3-.75-1.85c-3.42-5-3.69-10.06-.22-15.2.44-.66,1.56-1.34.89-2.28-.57-.79-1.68-.37-2.53-.37-11.25,0-22.49-.06-33.74,0-1.9,0-2.67-.38-2.65-2.49q.15-17.4,0-34.8c0-2.05.64-2.57,2.61-2.52,4.91.12,9.82,0,14.73.07,1.84,0,2.25-.32,1.1-2-3.33-4.93-4-10-.46-15.21.46-.69,1.53-1.39,1-2.26s-1.65-.38-2.5-.38q-26.77,0-53.55,0c-2.1,0-3-.43-3-2.78q.17-17.28,0-34.53c0-2.07.55-2.81,2.72-2.8q27.45.1,54.89,0c2,0,2.37.68,2.36,2.47-.06,10,0,20,0,30,0,4.6,2.88,7.59,7.44,7.6q22.5,0,45,0a7.28,7.28,0,0,0,7.46-7.43c0-3.4.11-6.78,0-10.17-.07-2,.47-2.68,2.53-2.62,4.82.14,9.64,0,14.45.06,1.74,0,2.45-.41,1.26-2.12-3.74-5.35-3.39-10.68.27-15.88,1.11-1.6.61-1.9-1.05-1.88-4.91,0-9.82-.09-14.73.05-2.07.07-2.76-.5-2.74-2.67q.17-17,0-34c0-2.39.54-3.17,3.08-3.16,17.85.11,35.7.06,53.55,0,.75,0,1.72.4,2.22-.45S682.4,196.31,682,195.76ZM424.42,300.06c0,9.19,0,18.38,0,27.57s0,18.37.05,27.56c0,1.81-.45,2.53-2.39,2.48q-7.5-.17-15,0c-2.07.06-2.55-.78-2.54-2.69.07-9.89,0-19.8,0-29.7,0-5.06-2.67-7.66-7.79-7.68-3.31,0-6.61-.06-9.91,0-1.58.05-2.22-.41-2.19-2.1.09-5.26.07-10.53,0-15.79,0-1.46.41-2.05,2-2.05q17.93.09,35.86,0C424.4,297.67,424.42,298.69,424.42,300.06Zm40.06-84.4c0,1.72-.45,2.33-2.25,2.32q-17.66-.12-35.31,0c-1.79,0-2.57-.49-2.54-2.41.1-5.08.09-10.16,0-15.24,0-1.77.58-2.29,2.32-2.26,5.88.08,11.77,0,17.65,0s11.76,0,17.65,0c1.79,0,2.53.42,2.49,2.36C464.37,205.5,464.38,210.58,464.48,215.66Zm139.34,39.8c0,1.79-.64,2.27-2.34,2.24-5-.09-10-.11-15,0-2,0-2.63-.52-2.61-2.55.11-9.19,0-18.38,0-27.57,0-8.92.09-17.85,0-26.77,0-2.28.71-2.86,2.9-2.79,4.89.15,9.8.1,14.71,0,1.72,0,2.33.47,2.33,2.26Q603.74,227.89,603.82,255.46Z" transform="translate(-324.76 -18.28)"/><path class="cls-2" d="M881.32,419.65c1.44-2.06,1.16-2.41-1.49-2.43-4.64,0-9.28-.12-13.92,0-2.28.07-3.2-.46-3-2.93.22-3.29.1-6.6,0-9.9a6.78,6.78,0,0,0-7-7.07c-3.57,0-7.14-.07-10.71,0-1.66.05-2.15-.55-2.12-2.16.08-5,0-10,.05-15,0-1.89-.34-2.57-2.17-1.31-5.17,3.61-10.38,3.85-15.58,0-1.79-1.32-2.18-.54-2.16,1.32.07,5,0,10,.06,15,0,1.62-.48,2.22-2.14,2.16-3.2-.1-6.42,0-9.64,0-5.6,0-8.34,2.7-8.43,8.34,0,3.13-.08,6.25,0,9.37,0,1.62-.51,2.2-2.15,2.18-5.09-.09-10.18-.13-15.26,0-2.09.06-2.55-.71-2.51-2.63.12-4.91,0-9.82,0-14.73,0-1.29.06-2.59-1.79-1.19-5.33,4.08-10.74,3.75-16.09.1-1.78-1.22-2-.61-2,1.14,0,5,0,10,0,15,0,1.73-.48,2.35-2.26,2.32-5.17-.1-10.35-.09-15.52,0-1.63,0-2.2-.52-2.16-2.16.1-3.47.05-6.95,0-10.44,0-4.5-2.83-7.25-7.38-7.28-3.31,0-6.62-.12-9.91,0-2,.09-2.61-.51-2.58-2.54q.12-17.4,0-34.79c0-1.84.47-2.52,2.39-2.47,5,.11,10,0,15,0,1.44,0,2.38-.06,1.12-1.83-3.88-5.53-3.84-11.13,0-16.63,1.11-1.56.4-1.76-1-1.75-4.83,0-9.65-.12-14.47.07-2.46.1-3.15-.67-3.12-3.12.14-9.72.09-19.46.05-29.18,0-4.59-2.81-7.43-7.26-7.48-3.3,0-6.61-.13-9.91,0-2.12.1-2.73-.58-2.72-2.7,0-4.9.29-9.8-.15-14.7-.18-1.94-.86-2.09-2.26-1.05-5.12,3.77-10.29,3.49-15.38,0-1.9-1.29-2.4-.88-2.36,1.28.06,5,0,10,.05,15,0,1.64-.52,2.18-2.15,2.15-5-.09-10,0-15-.05-1.81,0-2.57.19-1.23,2.11,3.51,5.06,3.79,10.29.15,15.41-1.74,2.45-.4,2.41,1.54,2.4,11.24,0,22.49.05,33.74-.06,2.27,0,2.84.67,2.82,2.86q-.16,17.26,0,34.53c0,2.09-.53,2.81-2.69,2.73-4.81-.15-9.63,0-14.45-.05-1.7,0-2.17.53-1.13,2,3.66,5.33,3.57,10.63-.15,15.89-.88,1.25-1.21,2,.86,2,5-.06,10,.07,15-.06,2-.05,2.6.56,2.56,2.57-.09,8.29,0,16.59,0,24.89s0,16.42,0,24.62c0,4.89,3,7.82,7.87,7.88,3.4.05,6.79.08,10.18,0,1.64,0,2.17.54,2.15,2.17-.07,5.16-.06,10.34,0,15.52,0,1.6-.55,2.24-2.19,2.21-3.3-.08-6.6,0-9.9,0-5.42,0-8.09,2.64-8.11,8,0,3.21,0,6.43,0,9.63.05,1.51-.29,2.29-2,2.26q-7.9-.14-15.81,0c-1.74,0-2.08-.71-2-2.24.07-3.48,0-6.95,0-10.44,0-4.49-2.67-7.18-7.11-7.21-3.3,0-6.61-.14-9.91,0-2.16.11-3-.47-2.88-2.79.17-4.9,0-9.81.05-14.72,0-1.62-.39-2.24-2-1.14-5.23,3.66-10.52,4-15.8.09-1.61-1.19-2.13-.69-2.11,1.16,0,5.08,0,10.17,0,15.26,0,1.65-.54,2.15-2.15,2.13-4.91-.09-9.82,0-14.73-.08-2.28,0-2.8.53-1.44,2.45,3.64,5.17,3.37,10.31-.21,15.36-1.14,1.61-.77,2.14,1.13,2.12,5.08,0,10.18.05,15.26,0,1.65,0,2.16.53,2.14,2.16-.09,5.17-.1,10.34,0,15.52,0,1.8-.61,2.27-2.34,2.24-4.9-.1-9.81,0-14.72,0-2,0-2.81.44-1.45,2.34,3.68,5.21,3.71,10.39,0,15.59-1.14,1.6-.8,2.34,1.28,2.31,4.81-.08,9.64.08,14.45-.08,2.26-.07,2.86.64,2.84,2.86-.11,11.24,0,22.48-.07,33.73,0,2,0,3.12,2.44,1.52,3.61-2.4,7.55-3.74,11.86-1.68a38.46,38.46,0,0,1,4,2.13c1.13.73,1.59.58,1.57-.79,0-.62,0-1.24,0-1.87V499.76c0-1.4-.35-2.83,2-2.81,11.87.09,23.74.07,35.61,0,1.66,0,2.15.59,2.12,2.18-.07,5.17-.09,10.35,0,15.53,0,1.87-.78,2.21-2.41,2.19-4.72-.07-9.45,0-14.18,0-2.59,0-2.89.42-1.57,2.47,3.38,5.2,3.54,10.34-.1,15.43-1.53,2.12-.64,2.32,1.41,2.31,11.33-.06,22.67,0,34-.08,2.24,0,3.25.39,3.06,2.9-.23,3.11-.06,6.24,0,9.37,0,5.19,2.5,7.62,7.77,7.64,3.22,0,6.43.1,9.64,0,1.81-.07,2.56.43,2.48,2.37-.15,3.29-.06,6.6-.05,9.91,0,5,2.55,7.6,7.53,7.61h44.45q7.82,0,7.93-7.94c0-3.21.08-6.43,0-9.63-.06-1.74.49-2.36,2.27-2.32,4.91.1,9.82,0,14.72,0,1.84,0,2.86-.09,1.33-2.19-3.76-5.16-3.64-10.42-.07-15.63,1.23-1.79.36-2.09-1.29-2.08-4.73,0-9.47-.07-14.2.05-2,0-2.86-.37-2.78-2.64.17-4.9.14-9.81,0-14.72-.06-2,.58-2.59,2.57-2.57,8.83.1,17.68,0,26.51,0,2.77,0,5.53,0,8.3,0,1.21,0,2.39-.24,1.16-1.84-4.15-5.37-4-10.86-.27-16.32,1.48-2.16.2-2-1.34-2-4.91,0-9.82-.05-14.73,0-1.68,0-2.38-.41-2.35-2.23.11-5.18.09-10.36,0-15.52,0-1.62.48-2.21,2.13-2.17,3.39.1,6.79,0,10.18,0,4.83,0,7.56-2.77,7.57-7.67,0-9.55.09-19.1-.06-28.64,0-2.58.45-3.53,3.33-3.48,11.23.19,22.48.05,33.72.1,2.25,0,2.54-.73,1.33-2.43C877.72,429.9,877.72,424.83,881.32,419.65ZM783.16,537.36c0,5.79,0,11.59,0,17.38,0,1.57-.41,2.22-2.1,2.2-5.26-.1-10.52-.08-15.78,0-1.5,0-2-.48-2-2q.06-17.92,0-35.84c0-1.59.67-1.94,2.1-1.93,5.17.06,10.33.08,15.51,0,1.75,0,2.32.54,2.29,2.29C783.11,525.41,783.16,531.38,783.16,537.36ZM800.75,497c-9.1-.09-18.19,0-27.28,0s-18.19-.05-27.28,0c-2,0-2.82-.31-2.81-2.58q.15-27.3,0-54.56c0-2.08.7-2.52,2.63-2.51q27.39.09,54.82,0c2,0,2.55.64,2.54,2.59q-.09,27.3,0,54.57C803.4,496.62,802.66,497,800.75,497Z" transform="translate(-324.76 -18.28)"/><path class="cls-3" d="M763.74,237.93c1.15.76,2.09,1.43,3.08,2,5.79,3.47,9.51,2.51,15.49-1.64,1.13-.78.84-1.87.84-2.9,0-10,0-20,0-30a7.3,7.3,0,0,1,7.64-7.67c3.31,0,6.61-.08,9.91,0,1.73.06,2.35-.52,2.32-2.29-.09-5.08,0-10.17,0-15.25,0-1.15,0-2.43,1.71-1.27,8.16,5.39,11.34,3.35,18-.77.74.62.42,1.48.42,2.23q0,15.12,0,30.25c0,4.66-2.6,7.22-7.3,7.25-3.48,0-7,.08-10.44,0-1.67,0-2.15.59-2.13,2.18.08,4.91,0,9.81,0,14.72,0,.85.47,2.06-.36,2.49s-1.82-.5-2.57-1A11.75,11.75,0,0,0,788.28,235c-4.18,1.73-4.79,2.56-4.79,7.08s.07,8.93,0,13.38c0,1.78.6,2.35,2.32,2.29,3.21-.1,6.43,0,9.64,0,5.3,0,7.91,2.59,7.93,7.82,0,3.3.06,6.6,0,9.9,0,1.64.56,2.16,2.17,2.16q37.62-.06,75.23,0c2,0,2.07-1,2.07-2.52q0-17.13,0-34.26c0-.86.07-1.72.14-3.23,6.68,5.88,13.17,5.65,19.48.37.85,1,.55,2,.55,2.79q0,46.85,0,93.68c0,3.15-.14,3.35-2.68,1.66-5.17-3.43-10.15-3.34-15.13.2-2,1.41-2.43.8-2.41-1.43.08-11.51,0-23,.07-34.53,0-1.93-.42-2.69-2.51-2.63-4.81.15-9.64.16-14.45,0-2.23-.07-2.65.8-2.63,2.8.07,11.24,0,22.48,0,33.72,0,.85.42,2-.48,2.48s-1.62-.47-2.33-.94c-5-3.3-10-3.3-14.95.15-.62.42-1.25,1.32-2.1.71-.62-.44-.32-1.33-.32-2,0-11.33-.06-22.66,0-34,0-2.13-.42-3-2.76-2.91-4.81.18-9.64.14-14.45,0-2.07-.06-2.77.49-2.74,2.66.11,9.9.06,19.81,0,29.71,0,5.08-2.66,7.72-7.72,7.74-3.12,0-6.25.14-9.36,0-2.32-.14-2.87.76-2.8,2.91.14,4.73,0,9.46.05,14.19,0,1.79-.05,3-2.24,1.39-6.1-4.46-12-3.36-18,1.76,0-4.57.05-8.45,0-12.33,0-2.47,1.07-5.66-.45-7.25s-4.89-.57-7.43-.59c-8-.08-16.06,0-24.1,0-4.9,0-7.92-2.72-8-7.69-.15-8.29-.13-16.59,0-24.89.07-4.92,3-7.66,8-7.79,3.12-.08,6.25-.14,9.37,0,2.22.12,2.87-.61,2.86-2.84-.09-17.76-.05-35.51,0-53.27A6.11,6.11,0,0,1,763.74,237.93Z" transform="translate(-324.76 -18.28)"/><path class="cls-4" d="M464.44,108.74h0c0-14.91.19-29.81-.05-44.7A44.37,44.37,0,0,0,452.3,34.26c-9.94-10.92-22.5-15.89-37.15-15.91-13.82,0-27.65,0-41.48,0a54.2,54.2,0,0,0-10.87,1.13,47.66,47.66,0,0,0-38,46.66c0,14.82,0,29.62,0,44.43A47.58,47.58,0,0,0,371.7,158c30,.07,59.95,0,89.92.07,2.19,0,2.89-.52,2.88-2.8C464.4,139.77,464.44,124.25,464.44,108.74ZM440.16,137.2c-11.41-.15-22.83-.07-34.25-.07v0c-10.79,0-21.59,0-32.38,0-13.5,0-23.3-7.35-26.9-20.37a30.35,30.35,0,0,1-.91-7.91c-.09-13.73,0-27.47-.06-41.21,0-14.07,8.07-24,20.59-27.44a15.52,15.52,0,0,1,4.22-.54c16.06,0,32.12-.12,48.17,0,12.09.11,23,10.32,24.52,22.38a60.12,60.12,0,0,1,.41,7.45c0,21.41,0,42.82.06,64.21C443.65,136.42,442.89,137.23,440.16,137.2Z" transform="translate(-324.76 -18.28)"/><path class="cls-5" d="M464.49,460.07c0-2.2-.55-2.88-2.81-2.87-15.43.1-30.87.06-46.29.06h0c-14.45,0-28.9,0-43.36,0a42.44,42.44,0,0,0-9,.86,47.74,47.74,0,0,0-38.21,47.12c0,14.72-.09,29.44,0,44.16a46.51,46.51,0,0,0,13.86,33.39c9.28,9.39,20.81,13.91,33.88,14.12,14.35.25,28.72.13,43.08,0,8.39,0,16.47-1.66,23.85-5.86C455.4,582,464.18,568.34,464.36,550,464.66,520,464.42,490,464.49,460.07ZM443.57,549a26.51,26.51,0,0,1-26.75,26.77c-14.81-.16-29.62-.22-44.42,0-11.43.19-23.25-8.25-26-20.6a39.24,39.24,0,0,1-.73-8c-.06-13.55-.1-27.11,0-40.66.08-10.15,3.66-18.62,12.55-24.23a25.91,25.91,0,0,1,13.89-4.1c11.33,0,22.66,0,34,0v0c11.41,0,22.83.06,34.25-.05,2.39,0,3.26.59,3.25,3.14C443.53,503.83,443.56,526.39,443.57,549Z" transform="translate(-324.76 -18.28)"/><path class="cls-6" d="M902.92,65.88a46.6,46.6,0,0,0-13.7-33.22c-9.32-9.48-20.9-14-34.08-14.25-14.37-.23-28.73-.1-43.09,0a50.6,50.6,0,0,0-17.24,3c-19.16,7-31.47,24.29-31.49,44.58q0,21.41,0,42.81c0,15.43.06,30.86-.06,46.29,0,2.54.77,3.07,3.15,3.07q44.55-.12,89.11,0a48.38,48.38,0,0,0,9-.82A47.87,47.87,0,0,0,903,110.56C903,95.67,903.08,80.77,902.92,65.88ZM882,109.76c-.17,13.59-8.06,23.28-20.25,26.52a26.85,26.85,0,0,1-6.88.85c-22.56,0-45.14,0-67.71.07-2.56,0-3.08-.83-3.06-3.2.07-8.29.06-16.6.05-24.9q0-4.68,0-9.35,0-16.19,0-32.38c0-14.16,7.77-24.14,21.44-27.38a31.67,31.67,0,0,1,7.15-.72c13.56-.07,27.13-.12,40.69,0,10.69.08,19.34,4.17,25,13.61A26.09,26.09,0,0,1,882,66.41C882.16,80.86,882.23,95.31,882,109.76Z" transform="translate(-324.76 -18.28)"/><path class="cls-7" d="M564.07,536.86q0,18.48,0,36.94c0,.69.09,1.7-.3,2-.76.6-1.45-.28-2.08-.7-5-3.35-10-3.4-15-.06-.64.42-1.31,1.27-2.1.83s-.39-1.46-.39-2.21c0-17.85-.06-35.69,0-53.54,0-2.34-.56-3.1-3-3-4.72.2-9.45.07-14.18,0-.85,0-2,.34-2.36-.72-.29-.81.49-1.37,1-2,3.31-3.64,3.53-9.46.66-14.44-.43-.74-1.53-1.46-1.06-2.29s1.79-.39,2.71-.4c4.55,0,9.1-.08,13.65,0,1.84,0,2.53-.58,2.49-2.47q-.15-7.77,0-15.53c0-1.79-.6-2.28-2.31-2.25-5,.09-10,0-15,.06-1.9,0-2.28-.55-1.18-2.09,3.7-5.16,3.91-10.36.11-15.57-1.41-1.94-.58-2.27,1.39-2.27,17.85,0,35.7,0,53.54.09,2.64,0,3.22-.78,3.2-3.3-.11-17.76,0-35.51,0-53.27,0-3.38,0-3.38-3.53-3.38-4.64,0-9.28,0-13.92,0-1.76,0-2.07-.42-1-1.91,3.82-5.35,3.8-10.75,0-16.09-1.06-1.49-.75-1.92,1-1.91q27.32,0,54.61,0c1.76,0,2.42.4,1.23,2.1-3.66,5.21-3.52,10.48,0,15.68,1.12,1.67.64,2.14-1.19,2.13-4.82,0-9.64.12-14.45-.07-2.51-.09-3,.91-2.93,3.13.1,9,0,18,0,27v86.19c0,3.5,0,3.51,3.53,3.51,3.13,0,6.25,0,9.37,0,4.3,0,7.19,2.64,7.24,6.88q.18,12.72,0,25.43c-.06,4.67-3,7.38-7.66,7.39q-12.31,0-24.63,0c-5,0-7.7-2.72-7.71-7.84,0-16.33-.05-32.65,0-49,0-2.43-.58-3.25-3.09-3.14-4.81.2-9.64.14-14.46,0-1.89-.05-2.42.59-2.41,2.44C564.1,511.88,564.07,524.37,564.07,536.86Z" transform="translate(-324.76 -18.28)"/><path class="cls-8" d="M583.89,18.35H635c6.14,0,8.8,2.66,8.8,8.78,0,7.94,0,15.88,0,23.82,0,4.68-2.79,7.42-7.51,7.45-3.48,0-7,0-10.44,0-1.35,0-1.92.42-1.9,1.84q.07,8,0,16.06c0,1.5.51,2,2,2,3.39-.08,6.79,0,10.18,0,4.85,0,7.66,2.81,7.67,7.64,0,9.9,0,19.8,0,29.71,0,2.05-.44,2.37-2.13,1.15-5.16-3.75-10.42-3.67-15.64-.12-1.72,1.17-2.13.51-2.12-1.24,0-5,0-10,0-15,0-1.66-.37-2.39-2.33-2.14a53.59,53.59,0,0,1-12.27-.24c-3.18-.34-5.51-3.33-5.59-7.13-.06-3.3-.16-6.61,0-9.9.14-2.32-.74-2.81-2.89-2.79-9.64.1-19.28,0-28.92,0-5.55,0-7.93-2.42-7.95-8,0-3.21-.06-6.42,0-9.63,0-1.54-.33-2.26-2.06-2.23q-7.9.14-15.8,0c-1.74,0-2.06.73-2,2.25.06,5,0,10,0,15,0,1.83-.29,2.65-2.18,1.27-5.15-3.75-10.41-3.78-15.61-.13-1.54,1.08-2.13.89-2.19-1,0-1.06-.21-2.13-.21-3.19q0-21.28,0-42.56a47.92,47.92,0,0,1,.39-5.86c.47-3.6,3.33-5.75,7.79-5.78,7.58-.06,15.17,0,22.75,0Z" transform="translate(-324.76 -18.28)"/><path class="cls-9" d="M841,576.76c-5.08,0-10.17,0-15.25,0-1.9,0-2.27-.55-1.18-2.09,3.66-5.18,3.83-10.39,0-15.57-1.22-1.67-.91-2.27,1.18-2.25,5,.06,10,0,15,0,1.73,0,2.37-.47,2.31-2.26-.12-3.47-.07-6.95,0-10.43.06-4.52,2.69-7.16,7.15-7.2,3.39,0,6.78-.11,10.16,0,2,.08,2.66-.47,2.6-2.53-.14-4.9,0-9.81-.06-14.71,0-1.9.35-2.53,2.21-1.27,5.07,3.43,10.23,3.83,15.39.11,1.87-1.35,2.33-.59,2.29,1.41-.08,4.64.08,9.28-.07,13.91-.07,2.29.53,3.23,3,3.09,3.38-.2,6.78-.09,10.17,0,4.06.06,7,2.78,7,6.87.11,10.17,0,20.34.05,30.5,0,1.67-.45,2.22-2,1.08-5.34-3.93-10.74-3.77-16.09-.07-1.66,1.14-2.14.74-2.13-1.13,0-5-.06-10,0-15,0-1.84-.51-2.49-2.41-2.45-5.08.12-10.17.11-15.25,0-1.79,0-2.31.58-2.25,2.31.1,3.56.06,7.13,0,10.7a6.59,6.59,0,0,1-6.9,6.87C851,576.79,846,576.76,841,576.76Z" transform="translate(-324.76 -18.28)"/><path class="cls-10" d="M703.4,78.11q0-18.19,0-36.39c0-.83-.46-1.95.54-2.42.78-.37,1.48.41,2.12.85,5,3.44,9.93,3.38,14.9,0,.62-.43,1.31-1.2,2.14-.76s.44,1.46.45,2.21c0,4.9.07,9.81,0,14.71,0,1.61.47,2.22,2.13,2.17,3.56-.1,7.13-.07,10.7,0a6.74,6.74,0,0,1,7,7.07c0,8.38,0,16.77,0,25.15,0,4.9-2.81,7.73-7.79,7.81-3.21,0-6.42.1-9.63,0-1.84-.07-2.51.5-2.46,2.41.11,4.81,0,9.63.06,14.44,0,2-.11,2.94-2.3,1.43-5.08-3.49-10.24-3.61-15.46-.12-2,1.36-2.44,1-2.45-1.56Q703.39,96.57,703.4,78.11Z" transform="translate(-324.76 -18.28)"/><path class="cls-11" d="M843.05,210c0-8.11,0-16.22,0-24.34,0-5,2.74-7.73,7.82-7.74q24.35,0,48.69,0c2.83,0,3,.24,1.53,2.59-3.24,5-3.24,9.94,0,15,1.51,2.36,1.3,2.59-1.5,2.6-4.82,0-9.63.09-14.45,0-1.91-.05-2.47.61-2.4,2.46.12,3.47.06,7,0,10.43,0,4.31-2.69,6.93-7.06,7-3.48,0-7,.11-10.43,0-1.94-.08-2.42.65-2.38,2.46.11,4.91,0,9.81.06,14.71,0,1.87-.34,2.65-2.14,1.31-5.19-3.84-10.4-3.63-15.58,0-1.7,1.19-2.22.8-2.2-1.23C843.09,226.74,843.05,218.36,843.05,210Z" transform="translate(-324.76 -18.28)"/><path class="cls-12" d="M683.83,258c-5.7,0-11.41,0-17.12,0-2,0-3-.22-1.49-2.47,3.57-5.17,3.75-10.43-.08-15.61-1.33-1.79-.61-2.17,1.27-2.14,4.91.07,9.81-.05,14.72.06,1.82,0,2.51-.47,2.46-2.39-.12-4.9-.05-9.8,0-14.71,0-.68-.31-1.52.37-2s1.32.27,1.86.65c5.21,3.67,10.45,3.64,15.62,0,1.89-1.34,2.38-.88,2.35,1.26-.07,4.91,0,9.81-.06,14.71,0,1.83.48,2.54,2.4,2.47,3.38-.13,6.77-.06,10.16,0a7,7,0,0,1,7.31,7.15c.07,3.48.09,7,0,10.43,0,1.76.55,2.33,2.3,2.29,5-.09,10,0,15,0,.67,0,1.54-.31,1.91.53.29.67-.4,1.1-.73,1.6-3.9,5.78-3.91,10,.12,16,1,1.44,1,2-.93,2-10.34,0-20.69,0-31-.05-3.59,0-6.67-3.36-6.75-7-.08-3.47-.12-6.95,0-10.43.08-1.92-.66-2.43-2.48-2.4C695.25,258.07,689.54,258,683.83,258Z" transform="translate(-324.76 -18.28)"/><path class="cls-13" d="M683.55,78.39V92.25c0,7.66.1,15.33-.06,23,0,2.55.82,3.24,3.22,3.11,3.29-.18,6.6-.08,9.9,0,4.13.06,6.74,2.56,6.76,6.64.06,10.16,0,20.33,0,30.49,0,1.3.09,2.54-1.81,1.22-5.45-3.82-10.89-3.88-16.28.22-1.57,1.19-1.76.11-1.76-1.18,0-4.9-.1-9.81.05-14.71.06-2.15-.47-3-2.79-2.89-3.37.2-6.77.09-10.16,0a6.74,6.74,0,0,1-6.94-6.92q-.06-25.14,0-50.28c0-.66-.6-2.92,1.34-1.52C671.23,83.86,677.15,83.48,683.55,78.39Z" transform="translate(-324.76 -18.28)"/><path class="cls-14" d="M524,187.47c0-2.41-.11-4.82,0-7.22.12-1.95-.68-2.42-2.49-2.39-4.81.1-9.63,0-14.44.06-1.87,0-2.28-.54-1.24-2.11,3.56-5.37,3.42-10.69-.31-15.9-1.1-1.54-.7-1.9,1-1.88,4.73.05,9.46-.12,14.18.07,2.51.11,3.44-.52,3.31-3.19-.21-4.63,0-9.27-.06-13.9,0-2,.41-2.71,2.4-1.33,5.27,3.68,10.58,3.78,15.8-.18.48-.36,1-1,1.63-.51s.35,1.15.35,1.75c0,4.9.12,9.81,0,14.7-.08,2.21.72,2.7,2.75,2.65,4.9-.13,9.81,0,14.71-.06,1.66,0,2.15.28,1,1.88-3.64,5.33-4,10.73,0,16.09,1.12,1.5.72,1.93-1,1.91-4.82,0-9.63.1-14.44-.06-2.29-.08-3.14.46-3,2.92.2,4.81,0,9.63.08,14.44,0,1.88-.14,2.82-2.19,1.32-3.57-2.63-7.53-3.63-11.83-2.07a28.1,28.1,0,0,0-4.26,2.19c-1.43.82-1.94.35-1.93-1.16C524,192.82,524,190.14,524,187.47Z" transform="translate(-324.76 -18.28)"/><path class="cls-15" d="M703.62,576.76q18.33,0,36.66,0c.83,0,2-.48,2.43.52s-.59,1.38-1,2c-3.66,5.23-3.09,10.38.36,15.41,1.18,1.72.93,2.25-1.16,2.25q-37.33,0-74.66,0c-2.22,0-2.22-.69-1.1-2.28,3.64-5.17,3.71-10.4.07-15.63-.38-.55-1.17-1.06-.73-1.85s1.29-.43,2-.43Q685,576.75,703.62,576.76Z" transform="translate(-324.76 -18.28)"/><path class="cls-16" d="M625.89,297.71c5.17,0,10.34,0,15.51,0,1.69,0,2.17.35,1,1.89-4,5.43-3.79,10.89.09,16.27,1.09,1.52.45,1.76-1,1.75-5,0-10,.07-15,0-1.94-.05-2.71.44-2.61,2.51.16,3.29.08,6.6,0,9.9-.06,4.74-2.77,7.45-7.48,7.46q-14.57,0-29.14,0c-2.81,0-2.93-.14-1.4-2.55,3.29-5.22,2.94-10.28-.49-15.21-1.28-1.83-.71-2.14,1.21-2.11,4.9.07,9.8-.05,14.7.06,1.83,0,2.55-.47,2.46-2.39-.14-3.2-.05-6.41,0-9.62,0-5.21,2.72-7.88,7.93-7.91h14.17Z" transform="translate(-324.76 -18.28)"/><path class="cls-17" d="M564.07,108.2c0,8.92,0,17.84,0,26.76,0,1.91.06,3.29-2.39,1.55-5.12-3.63-10.35-3.36-15.41.16-1.91,1.34-2.12.58-2.1-1.24,0-5,0-10,0-15,0-1.62-.5-2.19-2.15-2.16-5.26.08-10.52,0-15.78,0-1.55,0-2-.3-1-1.75,3.88-5.37,4.12-10.83.25-16.34-1.15-1.63-.47-2.15,1.3-2.13,4.46,0,8.92,0,13.38,0s3.91.49,3.92-3.8c0-4.55,0-9.1,0-13.64,0-1.76.43-2.1,1.91-1,5.22,3.87,10.56,3.89,15.81.14,2.18-1.56,2.18-.4,2.17,1.36C564.05,90.19,564.07,99.19,564.07,108.2Z" transform="translate(-324.76 -18.28)"/><path class="cls-18" d="M504.17,48.44q0,13.52,0,27c0,.66.35,1.56-.41,1.94s-1.33-.33-1.88-.73c-5.28-3.76-10.47-3.43-15.57.31-1.51,1.11-2,.66-2-1q0-27.43,0-54.86c0-1.59.35-2.25,2-1.15,5.17,3.5,10.41,3.8,15.69.2,1.67-1.15,2.24-.75,2.22,1.29C504.13,30.43,504.17,39.43,504.17,48.44Z" transform="translate(-324.76 -18.28)"/><path class="cls-19" d="M763.31,208.35c0,8.91,0,17.82,0,26.73,0,1.88-.37,2.63-2.16,1.29-5.28-3.94-10.58-3.57-15.83,0-1.46,1-1.94.84-1.93-1q0-27.39,0-54.79c0-1.62.42-2.24,2-1.15,5.28,3.68,10.59,3.7,15.88,0,1.85-1.28,2-.27,2,1.31Q763.29,194.59,763.31,208.35Z" transform="translate(-324.76 -18.28)"/><path class="cls-20" d="M642,417.21c-5,0-10,0-15,0-.75,0-1.75.4-2.18-.45-.35-.68.36-1.32.75-1.88,3.54-5.08,3.3-10.16-.12-15.16-1.23-1.79-1-2.41,1.24-2.37,4.91.08,9.82,0,14.72.06,1.86,0,2.48-.51,2.44-2.41-.12-5,0-10-.06-15,0-2,.66-2.17,2.1-1.11,5.28,3.86,10.54,3.77,15.8,0,1.27-.92,2-.93,2,1-.05,10.26,0,20.52-.06,30.77,0,3.92-2.93,6.54-6.94,6.57C651.81,417.24,646.9,417.21,642,417.21Z" transform="translate(-324.76 -18.28)"/><path class="cls-21" d="M324.79,197.62c0-5.71,0-11.42,0-17.13,0-1.68.15-2.44,2-1.16,5.45,3.85,11,3.75,16.4-.05,1.65-1.15,1.86-.54,1.86,1.06q0,17.53,0,35.06c0,2.13-.61,2.35-2.25,1.12-5.16-3.85-10.42-3.66-15.58-.06-2.25,1.58-2.41.55-2.39-1.44C324.83,209.22,324.79,203.42,324.79,197.62Z" transform="translate(-324.76 -18.28)"/><path class="cls-22" d="M882.43,497c-5.61,0-11.23,0-16.84,0-1.45,0-2.72,0-1.24-1.91,4.09-5.35,3.57-10.75,0-16.07-1-1.51-.77-1.91,1-1.91q17.37.06,34.74,0c2.28,0,2.19.92,1.18,2.35-3.54,5-3.43,10.1-.14,15.18,1.1,1.7,1,2.42-1.31,2.38C894,496.92,888.22,497,882.43,497Z" transform="translate(-324.76 -18.28)"/><path class="cls-23" d="M723.59,138.13c0-5.7,0-11.4,0-17.1,0-2,.49-2.48,2.19-1.26,5.2,3.73,10.41,3.61,15.56-.09,1.5-1.08,2.14-.94,2.14,1.07q-.06,17.5,0,35c0,1.84-.58,2-2,1-5.1-3.71-10.29-4-15.55-.26-.55.39-1.16,1.09-1.88.71s-.4-1.28-.4-2C723.57,149.53,723.59,143.83,723.59,138.13Z" transform="translate(-324.76 -18.28)"/><path class="cls-24" d="M863,377.48c-5.71,0-11.42,0-17.13,0-.67,0-1.53.33-2-.39s.33-1.29.73-1.83c3.86-5.23,3.46-10.47-.06-15.63-1.2-1.76-.58-2,1.16-2q17.27,0,34.53,0c2,0,2.23.64,1.15,2.11-3.84,5.22-3.48,10.45,0,15.61,1.34,2,.44,2.18-1.33,2.17C874.37,377.46,868.66,377.48,863,377.48Z" transform="translate(-324.76 -18.28)"/><path class="cls-25" d="M744.12,387.3c0-6.91,2.28-9.13,9.35-9.13,6.73,0,9.16,2.43,9.16,9.15,0,7-2.43,9.37-9.54,9.36C746.54,396.68,744.12,394.15,744.12,387.3Z" transform="translate(-324.76 -18.28)"/><path class="cls-26" d="M583.26,308.28c.08,2.88-.23,6.3-3.71,7.71a13.34,13.34,0,0,1-11.61-.35c-2.51-1.34-3-3.92-3.06-6.44-.16-3.56-.52-7.49,3.16-9.53a12.45,12.45,0,0,1,12,0C583.35,301.32,583.26,304.68,583.26,308.28Z" transform="translate(-324.76 -18.28)"/><path class="cls-27" d="M344,308.23c.24,2.76,0,6.06-3.28,7.61a12.42,12.42,0,0,1-11.82-.17c-4.43-2.63-3.06-7.42-2.91-11.45.11-2.88,2-4.9,5-5.51a17.79,17.79,0,0,1,7.92,0C342.77,299.71,344,302,344,308.23Z" transform="translate(-324.76 -18.28)"/><path class="cls-28" d="M374.66,216.88c-1.15,0-2.32.09-3.47,0a5.76,5.76,0,0,1-5.11-4.09,16.78,16.78,0,0,1-.28-8.7,6,6,0,0,1,4.92-5,21,21,0,0,1,7.95,0,6.06,6.06,0,0,1,5.05,5.19,18.14,18.14,0,0,1-.05,7.41c-.77,3.49-2.83,5.2-6.33,5.27-.89,0-1.78,0-2.68,0Z" transform="translate(-324.76 -18.28)"/><path class="cls-29" d="M784.23,387.38c-.25-3.3-.16-6.61,3.22-8.15a13,13,0,0,1,11.85.15c4.52,2.45,4.48,13.39,0,16a12.46,12.46,0,0,1-12,.15C783.93,393.88,784,390.5,784.23,387.38Z" transform="translate(-324.76 -18.28)"/><path class="cls-30" d="M883.85,387.66c-.24-3.47-.23-6.88,3.29-8.47a14.57,14.57,0,0,1,11.65,0c4.37,1.71,4.32,14.68.15,16.34s-8.21,2-12.11-.06C883.75,393.84,883.53,390.65,883.85,387.66Z" transform="translate(-324.76 -18.28)"/><path class="cls-31" d="M485.34,148.87c0-2.61-.3-4.55.63-6.26,2.38-4.4,6.64-3.85,10.6-3.71,3.65.14,6.07,2.13,6.69,5.39a21.83,21.83,0,0,1,0,7.69,5.31,5.31,0,0,1-2.95,4.2,13.24,13.24,0,0,1-12-.07C485.05,154.47,485.13,151.22,485.34,148.87Z" transform="translate(-324.76 -18.28)"/><path class="cls-32" d="M653.48,318.62c.89,0,1.79,0,2.68,0,3.7.09,5.68,1.78,6.54,5.38a16,16,0,0,1,.22,5.84c-.67,5.28-2.82,6.9-8.83,6.91-7.59,0-9.44-1.95-9.63-9.38C644.32,322.11,646.38,317.88,653.48,318.62Z" transform="translate(-324.76 -18.28)"/><path class="cls-33" d="M693,456.23c-2,.1-4.38.18-6.38-1.54-2.92-2.49-3-12-.21-14.62,2.52-2.35,10.61-2.91,13.37-.86a6,6,0,0,1,2.68,3.84,23.58,23.58,0,0,1,0,8.21c-.69,3.36-2.78,4.87-6.3,5C695.26,456.25,694.37,456.23,693,456.23Z" transform="translate(-324.76 -18.28)"/><path class="cls-34" d="M662.64,148.11c.76,7.58-3.49,9.46-9,9.3-6.89-.21-9.08-2.33-9.08-9.49,0-6.63,2.51-9.13,9.29-9.06C659.41,138.93,663.33,140.36,662.64,148.11Z" transform="translate(-324.76 -18.28)"/><path class="cls-35" d="M583.25,148.2c.12,3.56-.28,7.24-4.12,8.42-4,1.24-8.42,1.87-12.15-1.32a5.2,5.2,0,0,1-1.86-4.26c0-2,0-4.11,0-6.15a6,6,0,0,1,4.33-5.49,19.54,19.54,0,0,1,5.56-.56C581.17,139.24,583.25,141.6,583.25,148.2Z" transform="translate(-324.76 -18.28)"/><path class="cls-36" d="M463.42,387.46c.53,7.1-2.52,9.18-8.91,9.21-7,0-9.23-2.3-9.22-9.59,0-6.82,2.25-8.92,9.58-8.91C461.34,378.18,463.42,380.44,463.42,387.46Z" transform="translate(-324.76 -18.28)"/><path class="cls-37" d="M543.17,387.51c0,1,.06,2,0,2.94a6.14,6.14,0,0,1-5.55,5.85,21.23,21.23,0,0,1-6.89.08c-3-.55-4.88-2.14-5.44-5.08a21.43,21.43,0,0,1,0-7.7,6.06,6.06,0,0,1,5.12-5.12,18.52,18.52,0,0,1,6.38-.2C541.68,378.9,543.19,381.17,543.17,387.51Z" transform="translate(-324.76 -18.28)"/><path class="cls-38" d="M713.08,216.89a23.8,23.8,0,0,1-2.91,0c-2.58-.31-4.57-1.48-5.27-4.16a19.56,19.56,0,0,1-.12-9.22,6.13,6.13,0,0,1,6.05-4.69c1.77-.08,3.56-.09,5.33,0a6.45,6.45,0,0,1,6.39,6.51c0,.8,0,1.61,0,2.4C723.1,214.52,720.45,217.48,713.08,216.89Z" transform="translate(-324.76 -18.28)"/><path class="cls-39" d="M343.94,267.81c0,1,.07,2,0,2.93-.27,3.29-1.74,5.19-4.89,5.82a22,22,0,0,1-8.47,0c-2.42-.48-4.14-1.95-4.38-4.41-.4-3.89-1.52-7.95,1.53-11.42a5.06,5.06,0,0,1,3.44-1.86,40.3,40.3,0,0,1,7.45,0c3.33.42,5.07,2.59,5.32,6C344,265.84,344,266.83,343.94,267.81Z" transform="translate(-324.76 -18.28)"/><path class="cls-40" d="M514.05,137.12c-2.28,0-4.6.33-6.61-1.34-3.73-3.09-3.35-13.56.95-15.76,3.76-1.93,7.92-1.46,11.88,0,.46.17.81.68,1.19,1.06,2.66,2.71,2.75,11.6.11,14.25C519.45,137.44,516.73,137.21,514.05,137.12Z" transform="translate(-324.76 -18.28)"/><path class="cls-41" d="M514.19,79.3c.89,0,1.78,0,2.67,0,3.78.1,6.15,2.28,6.43,6.07a49.81,49.81,0,0,1,0,5.86,5.61,5.61,0,0,1-2.13,4.42c-3.82,2.92-8.17,2.29-12.19,1-3.25-1-4-4.2-3.79-7.48a6.25,6.25,0,0,0,0-1.06C504.66,81.9,507.3,78.72,514.19,79.3Z" transform="translate(-324.76 -18.28)"/><path class="cls-42" d="M813,376.43a27.47,27.47,0,0,1-3.28,0c-2.57-.32-4.55-1.5-5.25-4.19a19.65,19.65,0,0,1-.1-9.21,6.11,6.11,0,0,1,5.81-4.66c1.95-.11,3.91-.08,5.86,0a5.49,5.49,0,0,1,5.16,3.25c1.53,4,1.91,8.41-.35,12.33C819.17,376.9,815.9,376.55,813,376.43Z" transform="translate(-324.76 -18.28)"/><path class="cls-43" d="M684.6,28.37a27.32,27.32,0,0,1,0-3.27c.32-2.57,1.5-4.56,4.18-5.25a19.56,19.56,0,0,1,9.22-.11,6.1,6.1,0,0,1,4.66,5.8c.11,1.95.08,3.91,0,5.87a5.49,5.49,0,0,1-3.24,5.16c-4.05,1.54-8.41,1.91-12.33-.34C684.14,34.52,684.49,31.25,684.6,28.37Z" transform="translate(-324.76 -18.28)"/><path class="cls-44" d="M613.79,577.79c.89,0,1.78,0,2.67,0,3.78.1,6.16,2.27,6.45,6.05a54.54,54.54,0,0,1,0,5.86,5.63,5.63,0,0,1-2.12,4.42c-3.81,3-8.17,2.3-12.18,1.08-3.25-1-4-4.18-3.83-7.46.09-1.24,0-2.49,0-3.73.27-3.92,2.63-6.13,6.56-6.22C612.19,577.78,613,577.79,613.79,577.79Z" transform="translate(-324.76 -18.28)"/><path class="cls-45" d="M642.77,347.64a26.26,26.26,0,0,1,0,3.2c-.31,2.69-1.58,4.7-4.39,5.36a20.08,20.08,0,0,1-9,.06,6.08,6.08,0,0,1-4.7-5.76,49.81,49.81,0,0,1,0-5.86,6.32,6.32,0,0,1,5.15-6,23.69,23.69,0,0,1,7.7,0c3.44.56,5.16,2.78,5.25,6.33,0,.89,0,1.78,0,2.67Z" transform="translate(-324.76 -18.28)"/><path class="cls-46" d="M842,247.82a28.5,28.5,0,0,1,0,3.46c-.32,2.58-1.52,4.52-4.2,5.25a19.76,19.76,0,0,1-8.69.15,5.47,5.47,0,0,1-4.88-5c-.39-3.87-1.5-8,2-11.26a5.39,5.39,0,0,1,3.82-1.6c1.6,0,3.2,0,4.8,0,5,0,7.17,2.23,7.2,7.11,0,.62,0,1.24,0,1.86Z" transform="translate(-324.76 -18.28)"/><path class="cls-47" d="M485.35,108.32c0-.8,0-1.6,0-2.4.07-4.24,2.34-6.59,6.57-6.76,1.69-.06,3.38-.06,5.07,0a6.17,6.17,0,0,1,6.19,5.14,21.33,21.33,0,0,1,.13,7.68,6.3,6.3,0,0,1-6.15,5.28c-1.51.08-3,0-4.54,0-5,0-7.25-2.31-7.28-7.37Z" transform="translate(-324.76 -18.28)"/><path class="cls-48" d="M742.39,28.56V31.5a6.07,6.07,0,0,1-1.67,4.1c-1.8,2-9,2.87-12.47,1.37-3.18-1.4-4.16-4.11-4-7.42.15-2.88-.44-5.89,2-8.25a5.67,5.67,0,0,1,3.21-1.75,26.15,26.15,0,0,1,7.7,0c3.47.59,5.15,2.77,5.24,6.35,0,.88,0,1.77,0,2.66Z" transform="translate(-324.76 -18.28)"/><path class="cls-49" d="M485.36,586.9c0-1,0-2,0-2.93a6,6,0,0,1,1.26-3.73c2.87-4.1,14-3.59,16,1a14.56,14.56,0,0,1-.07,11.42,5.11,5.11,0,0,1-4.38,3.13,37,37,0,0,1-7.44,0c-3.55-.45-5.31-2.79-5.39-6.47C485.34,588.5,485.36,587.7,485.36,586.9Z" transform="translate(-324.76 -18.28)"/><path class="cls-50" d="M505.21,566.41c-.11-2-.14-4.2,1.29-6.13,2.51-3.36,13-3.63,15.34-.11,2.52,3.82,2.19,8.29.68,12.3-1.24,3.31-4.64,3.73-7.92,3.61-2.56-.09-5.12.17-7.28-1.77C504.93,572.16,505.18,569.41,505.21,566.41Z" transform="translate(-324.76 -18.28)"/><path class="cls-51" d="M634.07,557.94c2.37.08,4.83-.41,6.79,1.6,3,3.06,3,12.13-.35,14.82-3.66,3-8,2.15-12,.93-3.39-1-4-4.27-3.89-7.48,0-1.07,0-2.15,0-3.22.16-4.27,2.49-6.57,6.72-6.64C632.28,557.93,633.17,557.94,634.07,557.94Z" transform="translate(-324.76 -18.28)"/><path class="cls-52" d="M674.21,418.24c2.66-.19,6-.16,7.57,3.22a13.1,13.1,0,0,1-.1,11.87c-2.11,4.06-12.8,4.45-15.57.76a5.93,5.93,0,0,1-1.37-3.7c0-1.07,0-2.14,0-3.21C664.73,420,666.45,418.24,674.21,418.24Z" transform="translate(-324.76 -18.28)"/><path class="cls-53" d="M842,347.67a26.42,26.42,0,0,1,0,3.21c-.31,2.58-1.5,4.57-4.18,5.26a22.19,22.19,0,0,1-9.25.14l-.25-.08c-3.7-1.25-5.32-5.61-4.35-11.74a6.57,6.57,0,0,1,6.7-6c1.6-.05,3.21-.06,4.81,0,4.24.17,6.5,2.53,6.56,6.79,0,.8,0,1.6,0,2.4Z" transform="translate(-324.76 -18.28)"/><path class="cls-54" d="M673.42,57.36c-6.12.54-8.87-1.68-8.84-9.34,0-6.39,3.07-9.19,9.63-8.86s8.66,2.44,8.65,9.62C682.85,55.53,680.83,57.37,673.42,57.36Z" transform="translate(-324.76 -18.28)"/><path class="cls-55" d="M463.4,267.84c0,1,.05,2,0,2.94a5.58,5.58,0,0,1-4.41,5.63,21.78,21.78,0,0,1-9,.12,1.84,1.84,0,0,1-.25-.09c-3.73-1.21-5.34-5.47-4.42-11.68.55-3.69,3-5.93,6.64-6.05,1.61,0,3.21-.06,4.81,0,4.26.15,6.56,2.5,6.63,6.72,0,.8,0,1.6,0,2.41Z" transform="translate(-324.76 -18.28)"/><path class="cls-56" d="M563,427.42a28.63,28.63,0,0,1,0,3.21c-.3,2.58-1.49,4.54-4.16,5.28a19.7,19.7,0,0,1-8.71.18,5.77,5.77,0,0,1-5-4.95,18.7,18.7,0,0,1,0-7.67c.77-3.44,2.95-5.12,6.46-5.22,1.6,0,3.2-.06,4.8,0,4.24.16,6.51,2.51,6.57,6.76,0,.8,0,1.6,0,2.4Z" transform="translate(-324.76 -18.28)"/><path class="cls-57" d="M782.48,467.83c0,6.54-2,8.25-9.42,8.25s-8.72-1.42-8.72-9.32c0-6.88,2.06-8.83,9.27-8.82C780.39,458,782.48,460.29,782.48,467.83Z" transform="translate(-324.76 -18.28)"/><path class="cls-58" d="M423.34,87.88c-.07,16.33-14,29.64-29.36,29-15,.64-29.25-12.51-29.16-29.17a29.26,29.26,0,1,1,58.52.21Z" transform="translate(-324.76 -18.28)"/><path class="cls-59" d="M423.27,526.44a29.22,29.22,0,1,1-58.44,0,29.22,29.22,0,1,1,58.44,0Z" transform="translate(-324.76 -18.28)"/><path class="cls-60" d="M861.76,88c-.17,16-13.25,29.31-29.48,28.85-15.36.56-29.31-13.3-29-29.29.32-16.36,13.07-29.2,29.52-29.14A29.37,29.37,0,0,1,861.76,88Z" transform="translate(-324.76 -18.28)"/></g></svg>