<svg id="Layer_7" data-name="Layer 7" xmlns="http://www.w3.org/2000/svg" viewBox="0 0 502.76 506.03"><defs><style>.cls-1{fill:none;stroke:#000;stroke-miterlimit:10;stroke-width:13px;stroke-dasharray:23.84 23.84;}.cls-2{fill:#df0000;}.cls-3{fill:#fff;}</style></defs><path class="cls-1" d="M1035.33,360.64c0,129.92-105.31,235.23-235.22,235.23-312-12.39-311.94-458.11,0-470.45,129.91,0,235.22,105.31,235.22,235.22Z" transform="translate(-559.62 -118.92)"/><circle class="cls-2" cx="406.5" cy="409.77" r="96.26"/><g id="a4T58s"><path d="M636.94,360.23v19.26h8v5.79H622.5v-5.79h8V327.82h-8v-5.89h25.87a27.5,27.5,0,0,1,11.12,2,18.53,18.53,0,0,1,10.76,19c-.86,6.67-4,11.88-10,15.15a19.73,19.73,0,0,1-9.18,2.14c-4.29.07-8.58,0-12.87,0Zm0-6.05c5.17,0,10.28.31,15.33-.06,9.39-.71,14.7-11.32,9.93-19.45-2.72-4.62-6.94-6.71-12.17-6.84-4.15-.1-8.3,0-12.45,0-.19,0-.39,0-.64.06Z" transform="translate(-559.62 -118.92)"/><path d="M950.36,354.17c0-4.67-.23-9.35,0-14,.43-7.34,4.3-12.73,10.42-16.57,11-6.9,24.78-2.56,30.84,8.05a20.26,20.26,0,0,1,2.64,9.9c.08,7.77.12,15.55,0,23.32-.17,11.43-8.14,20.15-19.52,21.57A22,22,0,0,1,951,370.1a34.59,34.59,0,0,1-.75-6.83c-.12-3,0-6.07,0-9.1Zm37.7-.72h0c0-3.9.15-7.82-.06-11.71a18.73,18.73,0,0,0-1.38-6.47c-2.35-5.31-6.64-8.23-12.4-9a15.94,15.94,0,0,0-15.43,7.38,18.93,18.93,0,0,0-2.29,9.85c0,4.53,0,9.07,0,13.6,0,3.2-.07,6.43.22,9.61.56,6,3.61,10.44,9.2,12.8a15.68,15.68,0,0,0,16.3-2c4.19-3.12,5.75-7.57,5.84-12.62C988.11,361.05,988.06,357.25,988.06,353.45Z" transform="translate(-559.62 -118.92)"/><path d="M882.48,379.81h26.19v-9.72h5.63v15.19H874c0-1.72,0-3.48,0-5.24,0-.28.36-.57.6-.8l27-26.3a28.53,28.53,0,0,0,5.17-6.4c4.59-8.17-.85-18.89-10.16-20-8.61-1-15.36,4.53-16,13.17,0,.52-.07,1-.11,1.66h-6.2A46,46,0,0,1,875,336a20.09,20.09,0,0,1,21.2-15.66,19.42,19.42,0,0,1,18.45,19.25,18.5,18.5,0,0,1-5,13.45c-2.89,3.16-6,6.16-9,9.15-5.8,5.64-11.66,11.22-17.5,16.82a8.15,8.15,0,0,1-.76.55Z" transform="translate(-559.62 -118.92)"/><path d="M797.75,364.18a16.43,16.43,0,0,0,2.6,8.39c7.69,12.28,24.86,11.08,31.4.36a1.22,1.22,0,0,1,.76-.58c1.87-.05,3.74,0,5.66,0-3.35,8.57-14.3,16.42-27,13.77a24.28,24.28,0,0,1,8.13-47.83,24.31,24.31,0,0,1,20.91,25.92Zm.09-4.84h36.85c-1-8.6-8.89-16.19-19.42-15.94C805.25,343.64,798.24,352.51,797.84,359.34Z" transform="translate(-559.62 -118.92)"/><path d="M714.14,344.17h-7.66v-5.42h13.58v41.11h7.81v5.43h-13.6v-7.52c-.29.32-.41.41-.49.53-4.56,7.78-15.06,10.76-23.76,6.05-5.82-3.15-9.1-8.15-9.38-14.73-.32-7.38-.18-14.78-.24-22.17,0-1,0-2.09,0-3.25h-7.71v-5.46h13.57V340c0,8.13-.06,16.26,0,24.38a30.79,30.79,0,0,0,.76,7.25c1.89,7.48,9.16,11.24,16.8,8.89,6.27-1.92,10-6.64,10.22-13.25.18-7.5.11-15,.15-22.49A5.65,5.65,0,0,0,714.14,344.17Z" transform="translate(-559.62 -118.92)"/><path d="M781.26,342.58v-3.82H786v11.66h-4.7a7.57,7.57,0,0,0-4.82-6.62,10.9,10.9,0,0,0-10.86.91c-3.9,2.62-4.61,9.59.73,12.11a41.22,41.22,0,0,0,7.54,2.34,40,40,0,0,1,8.54,2.7c7.32,3.69,8,11.53,5.24,17-2.35,4.65-6.41,6.78-11.27,7.49a23.81,23.81,0,0,1-6.74-.16,12.17,12.17,0,0,1-8.21-5.11c-.23-.31-.44-.61-.81-1.13v5.35h-4.75V372.08c1.44,0,2.86,0,4.28,0,.19,0,.48.38.52.62,1.22,8,11.49,11.55,17.89,7.39a8.43,8.43,0,0,0,3.74-9.33,6,6,0,0,0-3.67-4.29,54.84,54.84,0,0,0-6.76-2.05c-3.35-.83-6.76-1.4-9.81-3.15-6.53-3.72-8.22-12.87-3.36-18.49,2.32-2.69,5.46-3.9,8.86-4.48a14.51,14.51,0,0,1,10,1.41A32.66,32.66,0,0,1,781.26,342.58Z" transform="translate(-559.62 -118.92)"/><path d="M729.92,379.86h8.18V327.43h-7.65V322H744v57.85h7.66v5.45H729.92Z" transform="translate(-559.62 -118.92)"/><path d="M936.56,385.3h-6v-9.5h6Z" transform="translate(-559.62 -118.92)"/></g><g id="fftQw8"><path class="cls-3" d="M958.49,548.94h5.12v3.57H949.5V549h5.06a5.26,5.26,0,0,0,.06-.6c0-4.65,0-9.31-.09-14a17.75,17.75,0,0,0-.49-3.54c-.71-3.26-3-4.9-6.06-5.59a8.59,8.59,0,0,0-10.09,6,10.2,10.2,0,0,0-.34,2.52c0,4.88,0,9.77,0,14.65,0,.14,0,.27,0,.49h5.05v3.6H928.53V549h5.07c0-.27,0-.47,0-.66,0-4.13.07-8.25,0-12.37a25.23,25.23,0,0,0-.71-5.18c-.9-3.7-3.16-5.45-7-5.67-5.09-.3-8.76,2.81-9.22,7.89-.16,1.7-.13,3.41-.14,5.11,0,3.34,0,6.68,0,10v.82h5.11v3.59H907.57V549h5.06V525.39h-5.06v-3.61h8.95v5.08a10.37,10.37,0,0,1,10.24-5.5c4.56.29,7.52,2.87,9.46,6.93a4.25,4.25,0,0,0,.25-.4,11.74,11.74,0,0,1,11.71-6.54,10.88,10.88,0,0,1,10.22,10.88c.14,5.25.07,10.5.09,15.75Z" transform="translate(-559.62 -118.92)"/><path class="cls-3" d="M965.32,552.52v-3.8h5.31V514.56h-5.3v-3.88h19.12c5.92,0,11,1.95,15.09,6.41,8.27,9.13,6.91,24.41-2.83,31.69a18.59,18.59,0,0,1-11.07,3.73c-6.68.11-13.36,0-20,0Zm9.6-3.91c.09,0,.13.07.17.07,3.77,0,7.55.05,11.32-.18A13.64,13.64,0,0,0,996,544a18.5,18.5,0,0,0,2.8-20.77,14.6,14.6,0,0,0-10.8-8.29c-4.3-.76-8.67-.33-13-.3Z" transform="translate(-559.62 -118.92)"/><path class="cls-3" d="M1011.33,548.72v3.8h-3.43V541.31c1.07,0,2.12,0,3.17,0,.14,0,.34.42.39.66a8.74,8.74,0,0,0,4,6.19c4.2,2.63,10.15,1.46,12.74-2.51a7.66,7.66,0,0,0-3.3-11.42,65.11,65.11,0,0,0-7.43-2.28,15.66,15.66,0,0,1-6.66-3.34,10.91,10.91,0,0,1,2.92-17.8,12.47,12.47,0,0,1,10.69-.2,8.52,8.52,0,0,1,3.59,3.1v-3h3.48v10c-1.07,0-2.1,0-3.13,0-.15,0-.38-.33-.42-.54a7.72,7.72,0,0,0-4.35-6,8.65,8.65,0,0,0-8.34.34,7.19,7.19,0,0,0,1,12.9c2.13.78,4.37,1.25,6.57,1.83a18.7,18.7,0,0,1,5.45,2.09c4.35,2.78,5.92,6.8,5.31,11.85a12.22,12.22,0,0,1-10.66,10.12,12.74,12.74,0,0,1-8-1.39A14.52,14.52,0,0,1,1011.33,548.72Z" transform="translate(-559.62 -118.92)"/></g></svg>